<svg width="749" height="311" viewBox="0 0 749 311" fill="none" xmlns="http://www.w3.org/2000/svg">
<g filter="url(#filter0_d)">
<path d="M102.92 155H79.76C79.44 154.52 79.28 153.88 79.28 153.08C79.28 152.2 79.56 151.4 80.12 150.68L88.16 149.72V118.04H44.72V149.48H51.68C52.96 149.48 53.6 150.04 53.6 151.16C53.6 151.72 53.4 152.68 53 154.04L52.76 155H29.6C29.28 154.52 29.12 153.88 29.12 153.08C29.12 152.2 29.4 151.4 29.96 150.68L38 149.72V83.12H31.04C29.76 83.12 29.12 82.56 29.12 81.44C29.12 80.88 29.32 79.92 29.72 78.56L29.96 77.6H53.12C53.44 78.08 53.6 78.72 53.6 79.52C53.6 80.4 53.32 81.2 52.76 81.92L44.72 82.88V112.52H88.16V83.12H81.2C79.92 83.12 79.28 82.56 79.28 81.44C79.28 80.88 79.48 79.92 79.88 78.56L80.12 77.6H103.28C103.6 78.08 103.76 78.72 103.76 79.52C103.76 80.4 103.48 81.2 102.92 81.92L94.88 82.88V149.48H101.84C103.12 149.48 103.76 150.04 103.76 151.16C103.76 151.72 103.56 152.68 103.16 154.04L102.92 155ZM179.436 155H123.636C123.316 154.52 123.156 153.88 123.156 153.08C123.156 152.2 123.436 151.4 123.996 150.68L132.036 149.72V83.12H125.076C123.796 83.12 123.156 82.56 123.156 81.44C123.156 80.88 123.356 79.92 123.756 78.56L123.996 77.6H178.236C179.356 78.48 180.316 79.52 181.116 80.72L181.356 96.56C180.876 96.88 180.236 97.04 179.436 97.04C178.556 97.04 177.756 96.76 177.036 96.2L174.036 83.12H138.756V112.76H162.756L163.836 106.4C164.076 104.96 164.756 104.24 165.876 104.24C166.196 104.24 166.836 104.44 167.796 104.84L168.516 105.2V126.32C168.036 126.64 167.396 126.8 166.596 126.8C165.716 126.8 164.916 126.52 164.196 125.96L162.756 118.16H138.756V149.48H175.236L178.236 136.4C178.956 135.84 179.756 135.56 180.636 135.56C181.436 135.56 182.076 135.72 182.556 136.04L182.316 151.88C181.516 153.08 180.556 154.12 179.436 155ZM255.12 155H202.32C202 154.52 201.84 153.88 201.84 153.08C201.84 152.2 202.12 151.4 202.68 150.68L210.72 149.72V83.12H203.76C202.48 83.12 201.84 82.56 201.84 81.44C201.84 80.88 202.04 79.92 202.44 78.56L202.68 77.6H227.04C227.36 78.08 227.52 78.72 227.52 79.52C227.52 80.4 227.24 81.2 226.68 81.92L217.44 82.88V149.48H250.92L253.92 135.8C254.64 135.24 255.44 134.96 256.32 134.96C257.12 134.96 257.76 135.12 258.24 135.44L258 151.88C257.2 153.08 256.24 154.12 255.12 155ZM304.774 155H275.614C275.294 154.52 275.134 153.88 275.134 153.08C275.134 152.2 275.414 151.4 275.974 150.68L284.014 149.72V83.12H277.054C275.774 83.12 275.134 82.56 275.134 81.44C275.134 80.88 275.334 79.92 275.734 78.56L275.974 77.6H305.854C310.894 77.6 315.134 78.32 318.574 79.76C322.094 81.2 324.894 83.08 326.974 85.4C329.134 87.72 330.694 90.28 331.654 93.08C332.694 95.8 333.214 98.48 333.214 101.12C333.214 103.76 332.694 106.48 331.654 109.28C330.694 112 329.134 114.52 326.974 116.84C324.894 119.16 322.094 121.04 318.574 122.48C315.134 123.92 310.894 124.64 305.854 124.64H290.734V149.48H303.694C304.974 149.48 305.614 150.04 305.614 151.16C305.614 151.72 305.414 152.68 305.014 154.04L304.774 155ZM290.734 119.12H305.854C312.094 119.12 317.014 117.52 320.614 114.32C324.294 111.04 326.134 106.64 326.134 101.12C326.134 95.6 324.294 91.24 320.614 88.04C317.014 84.76 312.094 83.12 305.854 83.12H290.734V119.12ZM102.92 269H79.76C79.44 268.52 79.28 267.88 79.28 267.08C79.28 266.2 79.56 265.4 80.12 264.68L88.16 263.72V232.04H44.72V263.48H51.68C52.96 263.48 53.6 264.04 53.6 265.16C53.6 265.72 53.4 266.68 53 268.04L52.76 269H29.6C29.28 268.52 29.12 267.88 29.12 267.08C29.12 266.2 29.4 265.4 29.96 264.68L38 263.72V197.12H31.04C29.76 197.12 29.12 196.56 29.12 195.44C29.12 194.88 29.32 193.92 29.72 192.56L29.96 191.6H53.12C53.44 192.08 53.6 192.72 53.6 193.52C53.6 194.4 53.32 195.2 52.76 195.92L44.72 196.88V226.52H88.16V197.12H81.2C79.92 197.12 79.28 196.56 79.28 195.44C79.28 194.88 79.48 193.92 79.88 192.56L80.12 191.6H103.28C103.6 192.08 103.76 192.72 103.76 193.52C103.76 194.4 103.48 195.2 102.92 195.92L94.88 196.88V263.48H101.84C103.12 263.48 103.76 264.04 103.76 265.16C103.76 265.72 103.56 266.68 103.16 268.04L102.92 269ZM158.676 264.56C164.436 264.56 169.436 263.16 173.676 260.36C177.996 257.48 181.316 253.48 183.636 248.36C186.036 243.16 187.236 237.12 187.236 230.24C187.236 223.36 186.036 217.36 183.636 212.24C181.316 207.12 177.996 203.16 173.676 200.36C169.436 197.48 164.436 196.04 158.676 196.04C152.916 196.04 147.876 197.48 143.556 200.36C139.316 203.16 135.996 207.12 133.596 212.24C131.276 217.36 130.116 223.36 130.116 230.24C130.116 237.2 131.276 243.24 133.596 248.36C135.996 253.48 139.316 257.48 143.556 260.36C147.876 263.16 152.916 264.56 158.676 264.56ZM158.676 270.2C151.556 270.2 145.316 268.56 139.956 265.28C134.596 261.92 130.436 257.28 127.476 251.36C124.516 245.36 123.036 238.32 123.036 230.24C123.036 222.24 124.516 215.28 127.476 209.36C130.436 203.36 134.596 198.72 139.956 195.44C145.316 192.08 151.556 190.4 158.676 190.4C165.796 190.4 172.036 192.08 177.396 195.44C182.756 198.72 186.916 203.36 189.876 209.36C192.836 215.28 194.316 222.24 194.316 230.24C194.316 238.32 192.836 245.36 189.876 251.36C186.916 257.28 182.756 261.92 177.396 265.28C172.036 268.56 165.796 270.2 158.676 270.2ZM304.276 269H281.116C280.796 268.52 280.636 267.88 280.636 267.08C280.636 266.2 280.916 265.4 281.476 264.68L289.516 263.72V202.16L261.796 259.4C260.996 259.56 260.116 259.64 259.156 259.64C258.196 259.64 257.316 259.56 256.516 259.4L228.796 203.6V263.48H235.756C237.036 263.48 237.676 264.04 237.676 265.16C237.676 265.72 237.476 266.68 237.076 268.04L236.836 269H214.156C213.836 268.52 213.676 267.88 213.676 267.08C213.676 266.2 213.956 265.4 214.516 264.68L222.556 263.72V197.12H215.596C214.316 197.12 213.676 196.56 213.676 195.44C213.676 194.88 213.876 193.92 214.276 192.56L214.516 191.6H229.996L259.516 250.88L288.316 191.6H304.636C304.956 192.08 305.116 192.72 305.116 193.52C305.116 194.4 304.836 195.2 304.276 195.92L296.236 196.88V263.48H303.196C304.476 263.48 305.116 264.04 305.116 265.16C305.116 265.72 304.916 266.68 304.516 268.04L304.276 269ZM380.867 269H325.067C324.747 268.52 324.587 267.88 324.587 267.08C324.587 266.2 324.867 265.4 325.427 264.68L333.467 263.72V197.12H326.507C325.227 197.12 324.587 196.56 324.587 195.44C324.587 194.88 324.787 193.92 325.187 192.56L325.427 191.6H379.667C380.787 192.48 381.747 193.52 382.547 194.72L382.787 210.56C382.307 210.88 381.667 211.04 380.867 211.04C379.987 211.04 379.187 210.76 378.467 210.2L375.467 197.12H340.187V226.76H364.187L365.267 220.4C365.507 218.96 366.187 218.24 367.307 218.24C367.627 218.24 368.267 218.44 369.227 218.84L369.947 219.2V240.32C369.467 240.64 368.827 240.8 368.027 240.8C367.147 240.8 366.347 240.52 365.627 239.96L364.187 232.16H340.187V263.48H376.667L379.667 250.4C380.387 249.84 381.187 249.56 382.067 249.56C382.867 249.56 383.507 249.72 383.987 250.04L383.747 265.88C382.947 267.08 381.987 268.12 380.867 269ZM456.552 269H403.752C403.432 268.52 403.272 267.88 403.272 267.08C403.272 266.2 403.552 265.4 404.112 264.68L412.152 263.72V197.12H405.192C403.912 197.12 403.272 196.56 403.272 195.44C403.272 194.88 403.472 193.92 403.872 192.56L404.112 191.6H428.472C428.792 192.08 428.952 192.72 428.952 193.52C428.952 194.4 428.672 195.2 428.112 195.92L418.872 196.88V263.48H452.352L455.352 249.8C456.072 249.24 456.872 248.96 457.752 248.96C458.552 248.96 459.192 249.12 459.672 249.44L459.432 265.88C458.632 267.08 457.672 268.12 456.552 269ZM532.845 269H477.045C476.725 268.52 476.565 267.88 476.565 267.08C476.565 266.2 476.845 265.4 477.405 264.68L485.445 263.72V197.12H478.485C477.205 197.12 476.565 196.56 476.565 195.44C476.565 194.88 476.765 193.92 477.165 192.56L477.405 191.6H531.645C532.765 192.48 533.725 193.52 534.525 194.72L534.765 210.56C534.285 210.88 533.645 211.04 532.845 211.04C531.965 211.04 531.165 210.76 530.445 210.2L527.445 197.12H492.165V226.76H516.165L517.245 220.4C517.485 218.96 518.165 218.24 519.285 218.24C519.605 218.24 520.245 218.44 521.205 218.84L521.925 219.2V240.32C521.445 240.64 520.805 240.8 520.005 240.8C519.125 240.8 518.325 240.52 517.605 239.96L516.165 232.16H492.165V263.48H528.645L531.645 250.4C532.365 249.84 533.165 249.56 534.045 249.56C534.845 249.56 535.485 249.72 535.965 250.04L535.725 265.88C534.925 267.08 533.965 268.12 532.845 269ZM555.37 261.8L555.13 246.8C555.61 246.48 556.25 246.32 557.05 246.32C557.93 246.32 558.73 246.6 559.45 247.16L562.69 261.44C564.93 262.4 567.41 263.16 570.13 263.72C572.93 264.28 575.85 264.56 578.89 264.56C585.53 264.56 590.69 263.2 594.37 260.48C598.13 257.68 600.01 253.8 600.01 248.84C600.01 245 598.65 241.88 595.93 239.48C593.21 237 588.41 234.6 581.53 232.28C575.21 230.2 570.17 228.08 566.41 225.92C562.73 223.68 560.05 221.24 558.37 218.6C556.77 215.88 555.97 212.76 555.97 209.24C555.97 203.32 558.13 198.72 562.45 195.44C566.77 192.08 572.77 190.4 580.45 190.4C587.25 190.4 593.61 191.84 599.53 194.72C600.01 195.28 600.45 195.88 600.85 196.52C601.25 197.16 601.57 197.76 601.81 198.32L602.05 212.72C601.57 213.04 600.93 213.2 600.13 213.2C599.25 213.2 598.45 212.92 597.73 212.36L594.49 198.8C590.01 196.88 585.33 195.92 580.45 195.92C574.77 195.92 570.41 197.08 567.37 199.4C564.33 201.64 562.81 204.92 562.81 209.24C562.81 211.8 563.37 214 564.49 215.84C565.69 217.68 567.73 219.4 570.61 221C573.57 222.6 577.65 224.28 582.85 226.04C591.57 229.08 597.77 232.32 601.45 235.76C605.13 239.2 606.97 243.56 606.97 248.84C606.97 255.48 604.49 260.72 599.53 264.56C594.57 268.32 587.69 270.2 578.89 270.2C574.81 270.2 570.89 269.8 567.13 269C563.37 268.12 560.21 266.92 557.65 265.4C557.17 264.84 556.73 264.24 556.33 263.6C555.93 262.96 555.61 262.36 555.37 261.8ZM625.851 261.8L625.611 246.8C626.091 246.48 626.731 246.32 627.531 246.32C628.411 246.32 629.211 246.6 629.931 247.16L633.171 261.44C635.411 262.4 637.891 263.16 640.611 263.72C643.411 264.28 646.331 264.56 649.371 264.56C656.011 264.56 661.171 263.2 664.851 260.48C668.611 257.68 670.491 253.8 670.491 248.84C670.491 245 669.131 241.88 666.411 239.48C663.691 237 658.891 234.6 652.011 232.28C645.691 230.2 640.651 228.08 636.891 225.92C633.211 223.68 630.531 221.24 628.851 218.6C627.251 215.88 626.451 212.76 626.451 209.24C626.451 203.32 628.611 198.72 632.931 195.44C637.251 192.08 643.251 190.4 650.931 190.4C657.731 190.4 664.091 191.84 670.011 194.72C670.491 195.28 670.931 195.88 671.331 196.52C671.731 197.16 672.051 197.76 672.291 198.32L672.531 212.72C672.051 213.04 671.411 213.2 670.611 213.2C669.731 213.2 668.931 212.92 668.211 212.36L664.971 198.8C660.491 196.88 655.811 195.92 650.931 195.92C645.251 195.92 640.891 197.08 637.851 199.4C634.811 201.64 633.291 204.92 633.291 209.24C633.291 211.8 633.851 214 634.971 215.84C636.171 217.68 638.211 219.4 641.091 221C644.051 222.6 648.131 224.28 653.331 226.04C662.051 229.08 668.251 232.32 671.931 235.76C675.611 239.2 677.451 243.56 677.451 248.84C677.451 255.48 674.971 260.72 670.011 264.56C665.051 268.32 658.171 270.2 649.371 270.2C645.291 270.2 641.371 269.8 637.611 269C633.851 268.12 630.691 266.92 628.131 265.4C627.651 264.84 627.211 264.24 626.811 263.6C626.411 262.96 626.091 262.36 625.851 261.8Z" fill="white"/>
<path d="M102.92 155V157H104.482L104.86 155.485L102.92 155ZM79.76 155L78.0959 156.109L78.6896 157H79.76V155ZM80.12 150.68L79.8829 148.694L79.0539 148.793L78.5413 149.452L80.12 150.68ZM88.16 149.72L88.3971 151.706L90.16 151.495V149.72H88.16ZM88.16 118.04H90.16V116.04H88.16V118.04ZM44.72 118.04V116.04H42.72V118.04H44.72ZM44.72 149.48H42.72V151.48H44.72V149.48ZM53 154.04L51.0813 153.476L51.0697 153.515L51.0597 153.555L53 154.04ZM52.76 155V157H54.3216L54.7003 155.485L52.76 155ZM29.6 155L27.9359 156.109L28.5296 157H29.6V155ZM29.96 150.68L29.7229 148.694L28.8939 148.793L28.3813 149.452L29.96 150.68ZM38 149.72L38.2371 151.706L40 151.495V149.72H38ZM38 83.12H40V81.12H38V83.12ZM29.72 78.56L31.6387 79.1243L31.6503 79.0849L31.6603 79.0451L29.72 78.56ZM29.96 77.6V75.6H28.3984L28.0197 77.1149L29.96 77.6ZM53.12 77.6L54.7841 76.4906L54.1904 75.6H53.12V77.6ZM52.76 81.92L52.9971 83.9059L53.8261 83.8069L54.3387 83.1479L52.76 81.92ZM44.72 82.88L44.4829 80.8941L42.72 81.1046V82.88H44.72ZM44.72 112.52H42.72V114.52H44.72V112.52ZM88.16 112.52V114.52H90.16V112.52H88.16ZM88.16 83.12H90.16V81.12H88.16V83.12ZM79.88 78.56L81.7987 79.1243L81.8103 79.0849L81.8203 79.0451L79.88 78.56ZM80.12 77.6V75.6H78.5584L78.1797 77.1149L80.12 77.6ZM103.28 77.6L104.944 76.4906L104.35 75.6H103.28V77.6ZM102.92 81.92L103.157 83.9059L103.986 83.8069L104.499 83.1479L102.92 81.92ZM94.88 82.88L94.6429 80.8941L92.88 81.1046V82.88H94.88ZM94.88 149.48H92.88V151.48H94.88V149.48ZM103.16 154.04L101.241 153.476L101.23 153.515L101.22 153.555L103.16 154.04ZM102.92 153H79.76V157H102.92V153ZM81.4241 153.891C81.3927 153.844 81.28 153.633 81.28 153.08H77.28C77.28 154.127 77.4873 155.196 78.0959 156.109L81.4241 153.891ZM81.28 153.08C81.28 152.662 81.401 152.291 81.6987 151.908L78.5413 149.452C77.719 150.509 77.28 151.738 77.28 153.08H81.28ZM80.3571 152.666L88.3971 151.706L87.9229 147.734L79.8829 148.694L80.3571 152.666ZM90.16 149.72V118.04H86.16V149.72H90.16ZM88.16 116.04H44.72V120.04H88.16V116.04ZM42.72 118.04V149.48H46.72V118.04H42.72ZM44.72 151.48H51.68V147.48H44.72V151.48ZM51.68 151.48C51.8606 151.48 51.9445 151.5 51.96 151.505C51.9692 151.508 51.8974 151.488 51.803 151.405C51.7572 151.365 51.7154 151.318 51.6805 151.267C51.6459 151.217 51.6241 151.171 51.611 151.137C51.586 151.071 51.6 151.066 51.6 151.16H55.6C55.6 150.217 55.3183 149.166 54.437 148.395C53.6068 147.668 52.5676 147.48 51.68 147.48V151.48ZM51.6 151.16C51.6 151.397 51.485 152.103 51.0813 153.476L54.9187 154.604C55.315 153.257 55.6 152.043 55.6 151.16H51.6ZM51.0597 153.555L50.8197 154.515L54.7003 155.485L54.9403 154.525L51.0597 153.555ZM52.76 153H29.6V157H52.76V153ZM31.2641 153.891C31.2327 153.844 31.12 153.633 31.12 153.08H27.12C27.12 154.127 27.3273 155.196 27.9359 156.109L31.2641 153.891ZM31.12 153.08C31.12 152.662 31.241 152.291 31.5387 151.908L28.3813 149.452C27.559 150.509 27.12 151.738 27.12 153.08H31.12ZM30.1971 152.666L38.2371 151.706L37.7629 147.734L29.7229 148.694L30.1971 152.666ZM40 149.72V83.12H36V149.72H40ZM38 81.12H31.04V85.12H38V81.12ZM31.04 81.12C30.8594 81.12 30.7755 81.0995 30.76 81.095C30.7508 81.0923 30.8226 81.1123 30.917 81.1948C30.9628 81.2349 31.0046 81.2818 31.0395 81.3327C31.0741 81.3832 31.096 81.4288 31.109 81.463C31.134 81.5287 31.12 81.5343 31.12 81.44H27.12C27.12 82.3829 27.4017 83.4341 28.283 84.2051C29.1132 84.9316 30.1524 85.12 31.04 85.12V81.12ZM31.12 81.44C31.12 81.2026 31.235 80.4971 31.6387 79.1243L27.8013 77.9957C27.405 79.3429 27.12 80.5574 27.12 81.44H31.12ZM31.6603 79.0451L31.9003 78.0851L28.0197 77.1149L27.7797 78.0749L31.6603 79.0451ZM29.96 79.6H53.12V75.6H29.96V79.6ZM51.4559 78.7094C51.4873 78.7565 51.6 78.9673 51.6 79.52H55.6C55.6 78.4727 55.3927 77.4035 54.7841 76.4906L51.4559 78.7094ZM51.6 79.52C51.6 79.9381 51.479 80.3094 51.1813 80.6921L54.3387 83.1479C55.161 82.0906 55.6 80.8619 55.6 79.52H51.6ZM52.5229 79.9341L44.4829 80.8941L44.9571 84.8659L52.9971 83.9059L52.5229 79.9341ZM42.72 82.88V112.52H46.72V82.88H42.72ZM44.72 114.52H88.16V110.52H44.72V114.52ZM90.16 112.52V83.12H86.16V112.52H90.16ZM88.16 81.12H81.2V85.12H88.16V81.12ZM81.2 81.12C81.0194 81.12 80.9355 81.0995 80.92 81.095C80.9108 81.0923 80.9826 81.1123 81.077 81.1948C81.1228 81.2349 81.1646 81.2818 81.1995 81.3327C81.2341 81.3832 81.256 81.4288 81.269 81.463C81.294 81.5287 81.28 81.5343 81.28 81.44H77.28C77.28 82.3829 77.5617 83.4341 78.443 84.2051C79.2732 84.9316 80.3124 85.12 81.2 85.12V81.12ZM81.28 81.44C81.28 81.2026 81.395 80.4971 81.7987 79.1243L77.9613 77.9957C77.565 79.3429 77.28 80.5574 77.28 81.44H81.28ZM81.8203 79.0451L82.0603 78.0851L78.1797 77.1149L77.9397 78.0749L81.8203 79.0451ZM80.12 79.6H103.28V75.6H80.12V79.6ZM101.616 78.7094C101.647 78.7565 101.76 78.9673 101.76 79.52H105.76C105.76 78.4727 105.553 77.4035 104.944 76.4906L101.616 78.7094ZM101.76 79.52C101.76 79.9381 101.639 80.3094 101.341 80.6921L104.499 83.1479C105.321 82.0906 105.76 80.8619 105.76 79.52H101.76ZM102.683 79.9341L94.6429 80.8941L95.1171 84.8659L103.157 83.9059L102.683 79.9341ZM92.88 82.88V149.48H96.88V82.88H92.88ZM94.88 151.48H101.84V147.48H94.88V151.48ZM101.84 151.48C102.021 151.48 102.105 151.5 102.12 151.505C102.129 151.508 102.057 151.488 101.963 151.405C101.917 151.365 101.875 151.318 101.841 151.267C101.806 151.217 101.784 151.171 101.771 151.137C101.746 151.071 101.76 151.066 101.76 151.16H105.76C105.76 150.217 105.478 149.166 104.597 148.395C103.767 147.668 102.728 147.48 101.84 147.48V151.48ZM101.76 151.16C101.76 151.397 101.645 152.103 101.241 153.476L105.079 154.604C105.475 153.257 105.76 152.043 105.76 151.16H101.76ZM101.22 153.555L100.98 154.515L104.86 155.485L105.1 154.525L101.22 153.555ZM179.436 155V157H180.128L180.672 156.573L179.436 155ZM123.636 155L121.972 156.109L122.566 157H123.636V155ZM123.996 150.68L123.759 148.694L122.93 148.793L122.417 149.452L123.996 150.68ZM132.036 149.72L132.273 151.706L134.036 151.495V149.72H132.036ZM132.036 83.12H134.036V81.12H132.036V83.12ZM123.756 78.56L125.675 79.1243L125.686 79.0849L125.696 79.0451L123.756 78.56ZM123.996 77.6V75.6H122.434L122.056 77.1149L123.996 77.6ZM178.236 77.6L179.472 76.0274L178.928 75.6H178.236V77.6ZM181.116 80.72L183.116 80.6897L183.107 80.1007L182.78 79.6106L181.116 80.72ZM181.356 96.56L182.465 98.2241L183.372 97.6195L183.356 96.5297L181.356 96.56ZM177.036 96.2L175.087 96.6471L175.246 97.3414L175.808 97.7787L177.036 96.2ZM174.036 83.12L175.985 82.6729L175.629 81.12H174.036V83.12ZM138.756 83.12V81.12H136.756V83.12H138.756ZM138.756 112.76H136.756V114.76H138.756V112.76ZM162.756 112.76V114.76H164.445L164.728 113.095L162.756 112.76ZM163.836 106.4L165.808 106.735L165.809 106.729L163.836 106.4ZM167.796 104.84L168.69 103.051L168.629 103.02L168.565 102.994L167.796 104.84ZM168.516 105.2H170.516V103.964L169.41 103.411L168.516 105.2ZM168.516 126.32L169.625 127.984L170.516 127.39V126.32H168.516ZM164.196 125.96L162.229 126.323L162.367 127.071L162.968 127.539L164.196 125.96ZM162.756 118.16L164.723 117.797L164.421 116.16H162.756V118.16ZM138.756 118.16V116.16H136.756V118.16H138.756ZM138.756 149.48H136.756V151.48H138.756V149.48ZM175.236 149.48V151.48H176.829L177.185 149.927L175.236 149.48ZM178.236 136.4L177.008 134.821L176.446 135.259L176.287 135.953L178.236 136.4ZM182.556 136.04L184.556 136.07L184.572 134.98L183.665 134.376L182.556 136.04ZM182.316 151.88L183.98 152.989L184.307 152.499L184.316 151.91L182.316 151.88ZM179.436 153H123.636V157H179.436V153ZM125.3 153.891C125.269 153.844 125.156 153.633 125.156 153.08H121.156C121.156 154.127 121.363 155.196 121.972 156.109L125.3 153.891ZM125.156 153.08C125.156 152.662 125.277 152.291 125.575 151.908L122.417 149.452C121.595 150.509 121.156 151.738 121.156 153.08H125.156ZM124.233 152.666L132.273 151.706L131.799 147.734L123.759 148.694L124.233 152.666ZM134.036 149.72V83.12H130.036V149.72H134.036ZM132.036 81.12H125.076V85.12H132.036V81.12ZM125.076 81.12C124.895 81.12 124.811 81.0995 124.796 81.095C124.787 81.0923 124.859 81.1123 124.953 81.1948C124.999 81.2349 125.04 81.2818 125.075 81.3327C125.11 81.3832 125.132 81.4288 125.145 81.463C125.17 81.5287 125.156 81.5343 125.156 81.44H121.156C121.156 82.3829 121.438 83.4341 122.319 84.2051C123.149 84.9316 124.188 85.12 125.076 85.12V81.12ZM125.156 81.44C125.156 81.2026 125.271 80.4971 125.675 79.1243L121.837 77.9957C121.441 79.3429 121.156 80.5574 121.156 81.44H125.156ZM125.696 79.0451L125.936 78.0851L122.056 77.1149L121.816 78.0749L125.696 79.0451ZM123.996 79.6H178.236V75.6H123.996V79.6ZM177 79.1726C177.952 79.9202 178.768 80.8033 179.452 81.8294L182.78 79.6106C181.864 78.2367 180.76 77.0398 179.472 76.0274L177 79.1726ZM179.116 80.7503L179.356 96.5903L183.356 96.5297L183.116 80.6897L179.116 80.7503ZM180.247 94.8959C180.199 94.9273 179.989 95.04 179.436 95.04V99.04C180.483 99.04 181.552 98.8327 182.465 98.2241L180.247 94.8959ZM179.436 95.04C179.018 95.04 178.647 94.919 178.264 94.6213L175.808 97.7787C176.865 98.601 178.094 99.04 179.436 99.04V95.04ZM178.985 95.7529L175.985 82.6729L172.087 83.5671L175.087 96.6471L178.985 95.7529ZM174.036 81.12H138.756V85.12H174.036V81.12ZM136.756 83.12V112.76H140.756V83.12H136.756ZM138.756 114.76H162.756V110.76H138.756V114.76ZM164.728 113.095L165.808 106.735L161.864 106.065L160.784 112.425L164.728 113.095ZM165.809 106.729C165.849 106.489 165.898 106.333 165.938 106.239C165.978 106.147 166 106.133 165.98 106.153C165.955 106.179 165.912 106.212 165.861 106.232C165.816 106.25 165.811 106.24 165.876 106.24V102.24C164.845 102.24 163.841 102.593 163.072 103.407C162.358 104.162 162.019 105.135 161.863 106.071L165.809 106.729ZM165.876 106.24C165.767 106.24 165.719 106.225 165.768 106.235C165.806 106.243 165.881 106.262 165.999 106.299C166.238 106.374 166.576 106.498 167.027 106.686L168.565 102.994C168.056 102.782 167.594 102.606 167.192 102.481C166.843 102.372 166.358 102.24 165.876 102.24V106.24ZM166.902 106.629L167.622 106.989L169.41 103.411L168.69 103.051L166.902 106.629ZM166.516 105.2V126.32H170.516V105.2H166.516ZM167.407 124.656C167.359 124.687 167.149 124.8 166.596 124.8V128.8C167.643 128.8 168.712 128.593 169.625 127.984L167.407 124.656ZM166.596 124.8C166.178 124.8 165.807 124.679 165.424 124.381L162.968 127.539C164.025 128.361 165.254 128.8 166.596 128.8V124.8ZM166.163 125.597L164.723 117.797L160.789 118.523L162.229 126.323L166.163 125.597ZM162.756 116.16H138.756V120.16H162.756V116.16ZM136.756 118.16V149.48H140.756V118.16H136.756ZM138.756 151.48H175.236V147.48H138.756V151.48ZM177.185 149.927L180.185 136.847L176.287 135.953L173.287 149.033L177.185 149.927ZM179.464 137.979C179.847 137.681 180.218 137.56 180.636 137.56V133.56C179.294 133.56 178.065 133.999 177.008 134.821L179.464 137.979ZM180.636 137.56C181.189 137.56 181.399 137.673 181.447 137.704L183.665 134.376C182.752 133.767 181.683 133.56 180.636 133.56V137.56ZM180.556 136.01L180.316 151.85L184.316 151.91L184.556 136.07L180.556 136.01ZM180.652 150.771C179.968 151.797 179.152 152.68 178.2 153.427L180.672 156.573C181.96 155.56 183.064 154.363 183.98 152.989L180.652 150.771ZM255.12 155V157H255.812L256.356 156.573L255.12 155ZM202.32 155L200.656 156.109L201.25 157H202.32V155ZM202.68 150.68L202.443 148.694L201.614 148.793L201.102 149.452L202.68 150.68ZM210.72 149.72L210.957 151.706L212.72 151.495V149.72H210.72ZM210.72 83.12H212.72V81.12H210.72V83.12ZM202.44 78.56L204.359 79.1243L204.371 79.0849L204.381 79.0451L202.44 78.56ZM202.68 77.6V75.6H201.119L200.74 77.1149L202.68 77.6ZM227.04 77.6L228.704 76.4906L228.111 75.6H227.04V77.6ZM226.68 81.92L226.887 83.9093L227.735 83.8211L228.259 83.1479L226.68 81.92ZM217.44 82.88L217.234 80.8907L215.44 81.077V82.88H217.44ZM217.44 149.48H215.44V151.48H217.44V149.48ZM250.92 149.48V151.48H252.529L252.874 149.908L250.92 149.48ZM253.92 135.8L252.692 134.221L252.122 134.665L251.967 135.372L253.92 135.8ZM258.24 135.44L260.24 135.469L260.256 134.38L259.35 133.776L258.24 135.44ZM258 151.88L259.664 152.989L259.991 152.499L260 151.909L258 151.88ZM255.12 153H202.32V157H255.12V153ZM203.984 153.891C203.953 153.844 203.84 153.633 203.84 153.08H199.84C199.84 154.127 200.048 155.196 200.656 156.109L203.984 153.891ZM203.84 153.08C203.84 152.662 203.961 152.291 204.259 151.908L201.102 149.452C200.279 150.509 199.84 151.738 199.84 153.08H203.84ZM202.917 152.666L210.957 151.706L210.483 147.734L202.443 148.694L202.917 152.666ZM212.72 149.72V83.12H208.72V149.72H212.72ZM210.72 81.12H203.76V85.12H210.72V81.12ZM203.76 81.12C203.58 81.12 203.496 81.0995 203.48 81.095C203.471 81.0923 203.543 81.1123 203.637 81.1948C203.683 81.2349 203.725 81.2818 203.76 81.3327C203.794 81.3832 203.816 81.4288 203.829 81.463C203.854 81.5287 203.84 81.5343 203.84 81.44H199.84C199.84 82.3829 200.122 83.4341 201.003 84.2051C201.834 84.9316 202.873 85.12 203.76 85.12V81.12ZM203.84 81.44C203.84 81.2026 203.955 80.4971 204.359 79.1243L200.522 77.9957C200.125 79.3429 199.84 80.5574 199.84 81.44H203.84ZM204.381 79.0451L204.621 78.0851L200.74 77.1149L200.5 78.0749L204.381 79.0451ZM202.68 79.6H227.04V75.6H202.68V79.6ZM225.376 78.7094C225.408 78.7565 225.52 78.9673 225.52 79.52H229.52C229.52 78.4727 229.313 77.4035 228.704 76.4906L225.376 78.7094ZM225.52 79.52C225.52 79.9381 225.399 80.3094 225.102 80.6921L228.259 83.1479C229.081 82.0906 229.52 80.8619 229.52 79.52H225.52ZM226.474 79.9307L217.234 80.8907L217.647 84.8693L226.887 83.9093L226.474 79.9307ZM215.44 82.88V149.48H219.44V82.88H215.44ZM217.44 151.48H250.92V147.48H217.44V151.48ZM252.874 149.908L255.874 136.228L251.967 135.372L248.967 149.052L252.874 149.908ZM255.148 137.379C255.531 137.081 255.902 136.96 256.32 136.96V132.96C254.978 132.96 253.75 133.399 252.692 134.221L255.148 137.379ZM256.32 136.96C256.873 136.96 257.084 137.073 257.131 137.104L259.35 133.776C258.437 133.167 257.368 132.96 256.32 132.96V136.96ZM256.241 135.411L256.001 151.851L260 151.909L260.24 135.469L256.241 135.411ZM256.336 150.771C255.652 151.797 254.836 152.68 253.885 153.427L256.356 156.573C257.644 155.56 258.748 154.363 259.664 152.989L256.336 150.771ZM304.774 155V157H306.336L306.714 155.485L304.774 155ZM275.614 155L273.95 156.109L274.544 157H275.614V155ZM275.974 150.68L275.737 148.694L274.908 148.793L274.395 149.452L275.974 150.68ZM284.014 149.72L284.251 151.706L286.014 151.495V149.72H284.014ZM284.014 83.12H286.014V81.12H284.014V83.12ZM275.734 78.56L277.653 79.1243L277.664 79.0849L277.674 79.0451L275.734 78.56ZM275.974 77.6V75.6H274.413L274.034 77.1149L275.974 77.6ZM318.574 79.76L317.802 81.6049L317.809 81.608L317.817 81.6111L318.574 79.76ZM326.974 85.4L325.485 86.7351L325.497 86.7491L325.51 86.7628L326.974 85.4ZM331.654 93.08L329.762 93.7286L329.773 93.7617L329.786 93.7943L331.654 93.08ZM331.654 109.28L329.779 108.584L329.774 108.599L329.768 108.614L331.654 109.28ZM326.974 116.84L325.51 115.477L325.497 115.491L325.485 115.505L326.974 116.84ZM318.574 122.48L317.817 120.629L317.809 120.632L317.802 120.635L318.574 122.48ZM290.734 124.64V122.64H288.734V124.64H290.734ZM290.734 149.48H288.734V151.48H290.734V149.48ZM305.014 154.04L303.095 153.476L303.084 153.515L303.074 153.555L305.014 154.04ZM290.734 119.12H288.734V121.12H290.734V119.12ZM320.614 114.32L321.943 115.815L321.945 115.813L320.614 114.32ZM320.614 88.04L319.267 89.5184L319.284 89.534L319.302 89.5492L320.614 88.04ZM290.734 83.12V81.12H288.734V83.12H290.734ZM304.774 153H275.614V157H304.774V153ZM277.278 153.891C277.247 153.844 277.134 153.633 277.134 153.08H273.134C273.134 154.127 273.341 155.196 273.95 156.109L277.278 153.891ZM277.134 153.08C277.134 152.662 277.255 152.291 277.553 151.908L274.395 149.452C273.573 150.509 273.134 151.738 273.134 153.08H277.134ZM276.211 152.666L284.251 151.706L283.777 147.734L275.737 148.694L276.211 152.666ZM286.014 149.72V83.12H282.014V149.72H286.014ZM284.014 81.12H277.054V85.12H284.014V81.12ZM277.054 81.12C276.873 81.12 276.79 81.0995 276.774 81.095C276.765 81.0923 276.837 81.1123 276.931 81.1948C276.977 81.2349 277.019 81.2818 277.054 81.3327C277.088 81.3832 277.11 81.4288 277.123 81.463C277.148 81.5287 277.134 81.5343 277.134 81.44H273.134C273.134 82.3829 273.416 83.4341 274.297 84.2051C275.127 84.9316 276.167 85.12 277.054 85.12V81.12ZM277.134 81.44C277.134 81.2026 277.249 80.4971 277.653 79.1243L273.815 77.9957C273.419 79.3429 273.134 80.5574 273.134 81.44H277.134ZM277.674 79.0451L277.914 78.0851L274.034 77.1149L273.794 78.0749L277.674 79.0451ZM275.974 79.6H305.854V75.6H275.974V79.6ZM305.854 79.6C310.717 79.6 314.676 80.2964 317.802 81.6049L319.346 77.9151C315.592 76.3436 311.072 75.6 305.854 75.6V79.6ZM317.817 81.6111C321.118 82.9614 323.646 84.6844 325.485 86.7351L328.463 84.0649C326.142 81.4756 323.071 79.4386 319.331 77.9089L317.817 81.6111ZM325.51 86.7628C327.493 88.8922 328.9 91.2126 329.762 93.7286L333.546 92.4313C332.489 89.3474 330.775 86.5478 328.438 84.0372L325.51 86.7628ZM329.786 93.7943C330.748 96.3097 331.214 98.7481 331.214 101.12H335.214C335.214 98.2119 334.64 95.2903 333.522 92.3657L329.786 93.7943ZM331.214 101.12C331.214 103.493 330.747 105.977 329.779 108.584L333.529 109.976C334.641 106.983 335.214 104.027 335.214 101.12H331.214ZM329.768 108.614C328.908 111.051 327.502 113.338 325.51 115.477L328.438 118.203C330.766 115.702 332.48 112.949 333.54 109.946L329.768 108.614ZM325.485 115.505C323.646 117.556 321.118 119.279 317.817 120.629L319.331 124.331C323.071 122.801 326.142 120.764 328.463 118.175L325.485 115.505ZM317.802 120.635C314.676 121.944 310.717 122.64 305.854 122.64V126.64C311.072 126.64 315.592 125.896 319.346 124.325L317.802 120.635ZM305.854 122.64H290.734V126.64H305.854V122.64ZM288.734 124.64V149.48H292.734V124.64H288.734ZM290.734 151.48H303.694V147.48H290.734V151.48ZM303.694 151.48C303.875 151.48 303.959 151.5 303.974 151.505C303.983 151.508 303.911 151.488 303.817 151.405C303.771 151.365 303.73 151.318 303.695 151.267C303.66 151.217 303.638 151.171 303.625 151.137C303.6 151.071 303.614 151.066 303.614 151.16H307.614C307.614 150.217 307.332 149.166 306.451 148.395C305.621 147.668 304.582 147.48 303.694 147.48V151.48ZM303.614 151.16C303.614 151.397 303.499 152.103 303.095 153.476L306.933 154.604C307.329 153.257 307.614 152.043 307.614 151.16H303.614ZM303.074 153.555L302.834 154.515L306.714 155.485L306.954 154.525L303.074 153.555ZM290.734 121.12H305.854V117.12H290.734V121.12ZM305.854 121.12C312.435 121.12 317.879 119.427 321.943 115.815L319.285 112.825C316.149 115.613 311.753 117.12 305.854 117.12V121.12ZM321.945 115.813C326.104 112.106 328.134 107.134 328.134 101.12H324.134C324.134 106.146 322.484 109.974 319.283 112.827L321.945 115.813ZM328.134 101.12C328.134 95.1063 326.104 90.1631 321.926 86.5308L319.302 89.5492C322.484 92.3168 324.134 96.0937 324.134 101.12H328.134ZM321.961 86.5616C317.898 82.8598 312.448 81.12 305.854 81.12V85.12C311.741 85.12 316.13 86.6602 319.267 89.5184L321.961 86.5616ZM305.854 81.12H290.734V85.12H305.854V81.12ZM288.734 83.12V119.12H292.734V83.12H288.734ZM102.92 269V271H104.482L104.86 269.485L102.92 269ZM79.76 269L78.0959 270.109L78.6896 271H79.76V269ZM80.12 264.68L79.8829 262.694L79.0539 262.793L78.5413 263.452L80.12 264.68ZM88.16 263.72L88.3971 265.706L90.16 265.495V263.72H88.16ZM88.16 232.04H90.16V230.04H88.16V232.04ZM44.72 232.04V230.04H42.72V232.04H44.72ZM44.72 263.48H42.72V265.48H44.72V263.48ZM53 268.04L51.0813 267.476L51.0697 267.515L51.0597 267.555L53 268.04ZM52.76 269V271H54.3216L54.7003 269.485L52.76 269ZM29.6 269L27.9359 270.109L28.5296 271H29.6V269ZM29.96 264.68L29.7229 262.694L28.8939 262.793L28.3813 263.452L29.96 264.68ZM38 263.72L38.2371 265.706L40 265.495V263.72H38ZM38 197.12H40V195.12H38V197.12ZM29.72 192.56L31.6387 193.124L31.6503 193.085L31.6603 193.045L29.72 192.56ZM29.96 191.6V189.6H28.3984L28.0197 191.115L29.96 191.6ZM53.12 191.6L54.7841 190.491L54.1904 189.6H53.12V191.6ZM52.76 195.92L52.9971 197.906L53.8261 197.807L54.3387 197.148L52.76 195.92ZM44.72 196.88L44.4829 194.894L42.72 195.105V196.88H44.72ZM44.72 226.52H42.72V228.52H44.72V226.52ZM88.16 226.52V228.52H90.16V226.52H88.16ZM88.16 197.12H90.16V195.12H88.16V197.12ZM79.88 192.56L81.7987 193.124L81.8103 193.085L81.8203 193.045L79.88 192.56ZM80.12 191.6V189.6H78.5584L78.1797 191.115L80.12 191.6ZM103.28 191.6L104.944 190.491L104.35 189.6H103.28V191.6ZM102.92 195.92L103.157 197.906L103.986 197.807L104.499 197.148L102.92 195.92ZM94.88 196.88L94.6429 194.894L92.88 195.105V196.88H94.88ZM94.88 263.48H92.88V265.48H94.88V263.48ZM103.16 268.04L101.241 267.476L101.23 267.515L101.22 267.555L103.16 268.04ZM102.92 267H79.76V271H102.92V267ZM81.4241 267.891C81.3927 267.844 81.28 267.633 81.28 267.08H77.28C77.28 268.127 77.4873 269.196 78.0959 270.109L81.4241 267.891ZM81.28 267.08C81.28 266.662 81.401 266.291 81.6987 265.908L78.5413 263.452C77.719 264.509 77.28 265.738 77.28 267.08H81.28ZM80.3571 266.666L88.3971 265.706L87.9229 261.734L79.8829 262.694L80.3571 266.666ZM90.16 263.72V232.04H86.16V263.72H90.16ZM88.16 230.04H44.72V234.04H88.16V230.04ZM42.72 232.04V263.48H46.72V232.04H42.72ZM44.72 265.48H51.68V261.48H44.72V265.48ZM51.68 265.48C51.8606 265.48 51.9445 265.5 51.96 265.505C51.9692 265.508 51.8974 265.488 51.803 265.405C51.7572 265.365 51.7154 265.318 51.6805 265.267C51.6459 265.217 51.6241 265.171 51.611 265.137C51.586 265.071 51.6 265.066 51.6 265.16H55.6C55.6 264.217 55.3183 263.166 54.437 262.395C53.6068 261.668 52.5676 261.48 51.68 261.48V265.48ZM51.6 265.16C51.6 265.397 51.485 266.103 51.0813 267.476L54.9187 268.604C55.315 267.257 55.6 266.043 55.6 265.16H51.6ZM51.0597 267.555L50.8197 268.515L54.7003 269.485L54.9403 268.525L51.0597 267.555ZM52.76 267H29.6V271H52.76V267ZM31.2641 267.891C31.2327 267.844 31.12 267.633 31.12 267.08H27.12C27.12 268.127 27.3273 269.196 27.9359 270.109L31.2641 267.891ZM31.12 267.08C31.12 266.662 31.241 266.291 31.5387 265.908L28.3813 263.452C27.559 264.509 27.12 265.738 27.12 267.08H31.12ZM30.1971 266.666L38.2371 265.706L37.7629 261.734L29.7229 262.694L30.1971 266.666ZM40 263.72V197.12H36V263.72H40ZM38 195.12H31.04V199.12H38V195.12ZM31.04 195.12C30.8594 195.12 30.7755 195.1 30.76 195.095C30.7508 195.092 30.8226 195.112 30.917 195.195C30.9628 195.235 31.0046 195.282 31.0395 195.333C31.0741 195.383 31.096 195.429 31.109 195.463C31.134 195.529 31.12 195.534 31.12 195.44H27.12C27.12 196.383 27.4017 197.434 28.283 198.205C29.1132 198.932 30.1524 199.12 31.04 199.12V195.12ZM31.12 195.44C31.12 195.203 31.235 194.497 31.6387 193.124L27.8013 191.996C27.405 193.343 27.12 194.557 27.12 195.44H31.12ZM31.6603 193.045L31.9003 192.085L28.0197 191.115L27.7797 192.075L31.6603 193.045ZM29.96 193.6H53.12V189.6H29.96V193.6ZM51.4559 192.709C51.4873 192.756 51.6 192.967 51.6 193.52H55.6C55.6 192.473 55.3927 191.404 54.7841 190.491L51.4559 192.709ZM51.6 193.52C51.6 193.938 51.479 194.309 51.1813 194.692L54.3387 197.148C55.161 196.091 55.6 194.862 55.6 193.52H51.6ZM52.5229 193.934L44.4829 194.894L44.9571 198.866L52.9971 197.906L52.5229 193.934ZM42.72 196.88V226.52H46.72V196.88H42.72ZM44.72 228.52H88.16V224.52H44.72V228.52ZM90.16 226.52V197.12H86.16V226.52H90.16ZM88.16 195.12H81.2V199.12H88.16V195.12ZM81.2 195.12C81.0194 195.12 80.9355 195.1 80.92 195.095C80.9108 195.092 80.9826 195.112 81.077 195.195C81.1228 195.235 81.1646 195.282 81.1995 195.333C81.2341 195.383 81.256 195.429 81.269 195.463C81.294 195.529 81.28 195.534 81.28 195.44H77.28C77.28 196.383 77.5617 197.434 78.443 198.205C79.2732 198.932 80.3124 199.12 81.2 199.12V195.12ZM81.28 195.44C81.28 195.203 81.395 194.497 81.7987 193.124L77.9613 191.996C77.565 193.343 77.28 194.557 77.28 195.44H81.28ZM81.8203 193.045L82.0603 192.085L78.1797 191.115L77.9397 192.075L81.8203 193.045ZM80.12 193.6H103.28V189.6H80.12V193.6ZM101.616 192.709C101.647 192.756 101.76 192.967 101.76 193.52H105.76C105.76 192.473 105.553 191.404 104.944 190.491L101.616 192.709ZM101.76 193.52C101.76 193.938 101.639 194.309 101.341 194.692L104.499 197.148C105.321 196.091 105.76 194.862 105.76 193.52H101.76ZM102.683 193.934L94.6429 194.894L95.1171 198.866L103.157 197.906L102.683 193.934ZM92.88 196.88V263.48H96.88V196.88H92.88ZM94.88 265.48H101.84V261.48H94.88V265.48ZM101.84 265.48C102.021 265.48 102.105 265.5 102.12 265.505C102.129 265.508 102.057 265.488 101.963 265.405C101.917 265.365 101.875 265.318 101.841 265.267C101.806 265.217 101.784 265.171 101.771 265.137C101.746 265.071 101.76 265.066 101.76 265.16H105.76C105.76 264.217 105.478 263.166 104.597 262.395C103.767 261.668 102.728 261.48 101.84 261.48V265.48ZM101.76 265.16C101.76 265.397 101.645 266.103 101.241 267.476L105.079 268.604C105.475 267.257 105.76 266.043 105.76 265.16H101.76ZM101.22 267.555L100.98 268.515L104.86 269.485L105.1 268.525L101.22 267.555ZM173.676 260.36L174.778 262.029L174.785 262.024L173.676 260.36ZM183.636 248.36L181.82 247.522L181.814 247.535L183.636 248.36ZM183.636 212.24L181.814 213.065L181.82 213.077L181.825 213.089L183.636 212.24ZM173.676 200.36L172.552 202.014L172.57 202.027L172.588 202.038L173.676 200.36ZM143.556 200.36L144.658 202.029L144.665 202.024L143.556 200.36ZM133.596 212.24L131.785 211.391L131.78 211.403L131.774 211.415L133.596 212.24ZM133.596 248.36L131.774 249.185L131.78 249.197L131.785 249.209L133.596 248.36ZM143.556 260.36L142.432 262.014L142.45 262.027L142.468 262.038L143.556 260.36ZM139.956 265.28L138.894 266.975L138.903 266.98L138.912 266.986L139.956 265.28ZM127.476 251.36L125.682 252.245L125.687 252.254L127.476 251.36ZM127.476 209.36L129.265 210.254L129.27 210.245L127.476 209.36ZM139.956 195.44L141 197.146L141.009 197.14L141.018 197.135L139.956 195.44ZM177.396 195.44L176.334 197.135L176.343 197.14L176.352 197.146L177.396 195.44ZM189.876 209.36L188.082 210.245L188.087 210.254L189.876 209.36ZM189.876 251.36L191.665 252.254L191.67 252.245L189.876 251.36ZM177.396 265.28L178.44 266.986L178.449 266.98L178.458 266.975L177.396 265.28ZM158.676 266.56C164.774 266.56 170.169 265.073 174.778 262.029L172.574 258.691C168.703 261.247 164.098 262.56 158.676 262.56V266.56ZM174.785 262.024C179.442 258.92 182.997 254.617 185.458 249.185L181.814 247.535C179.635 252.343 176.55 256.04 172.567 258.696L174.785 262.024ZM185.452 249.198C187.995 243.688 189.236 237.352 189.236 230.24H185.236C185.236 236.888 184.077 242.632 181.82 247.522L185.452 249.198ZM189.236 230.24C189.236 223.129 187.995 216.828 185.447 211.391L181.825 213.089C184.076 217.892 185.236 223.591 185.236 230.24H189.236ZM185.458 211.415C182.995 205.979 179.434 201.709 174.764 198.682L172.588 202.038C176.558 204.611 179.637 208.261 181.814 213.065L185.458 211.415ZM174.8 198.706C170.188 195.573 164.785 194.04 158.676 194.04V198.04C164.087 198.04 168.684 199.387 172.552 202.014L174.8 198.706ZM158.676 194.04C152.566 194.04 147.131 195.573 142.447 198.696L144.665 202.024C148.621 199.387 153.266 198.04 158.676 198.04V194.04ZM142.454 198.691C137.873 201.716 134.323 205.976 131.785 211.391L135.407 213.089C137.669 208.264 140.759 204.604 144.658 202.029L142.454 198.691ZM131.774 211.415C129.313 216.845 128.116 223.138 128.116 230.24H132.116C132.116 223.582 133.238 217.875 135.418 213.065L131.774 211.415ZM128.116 230.24C128.116 237.419 129.312 243.752 131.774 249.185L135.418 247.535C133.24 242.728 132.116 236.981 132.116 230.24H128.116ZM131.785 249.209C134.321 254.62 137.865 258.912 142.432 262.014L144.68 258.706C140.767 256.048 137.671 252.34 135.407 247.511L131.785 249.209ZM142.468 262.038C147.15 265.073 152.577 266.56 158.676 266.56V262.56C153.255 262.56 148.602 261.247 144.644 258.682L142.468 262.038ZM158.676 268.2C151.874 268.2 146.005 266.637 141 263.574L138.912 266.986C144.626 270.483 151.238 272.2 158.676 272.2V268.2ZM141.018 263.585C135.984 260.43 132.069 256.073 129.265 250.466L125.687 252.254C128.803 258.487 133.208 263.41 138.894 266.975L141.018 263.585ZM129.27 250.475C126.471 244.802 125.036 238.076 125.036 230.24H121.036C121.036 238.564 122.561 245.918 125.682 252.245L129.27 250.475ZM125.036 230.24C125.036 222.487 126.47 215.845 129.265 210.254L125.687 208.466C122.562 214.715 121.036 221.993 121.036 230.24H125.036ZM129.27 210.245C132.074 204.561 135.983 200.216 141 197.146L138.912 193.734C133.208 197.224 128.798 202.159 125.682 208.475L129.27 210.245ZM141.018 197.135C146.021 193.998 151.883 192.4 158.676 192.4V188.4C151.229 188.4 144.611 190.162 138.894 193.745L141.018 197.135ZM158.676 192.4C165.469 192.4 171.331 193.998 176.334 197.135L178.458 193.745C172.741 190.162 166.123 188.4 158.676 188.4V192.4ZM176.352 197.146C181.368 200.216 185.278 204.561 188.082 210.245L191.67 208.475C188.554 202.159 184.143 197.224 178.44 193.734L176.352 197.146ZM188.087 210.254C190.882 215.845 192.316 222.487 192.316 230.24H196.316C196.316 221.993 194.79 214.715 191.665 208.466L188.087 210.254ZM192.316 230.24C192.316 238.076 190.881 244.802 188.082 250.475L191.67 252.245C194.791 245.918 196.316 238.564 196.316 230.24H192.316ZM188.087 250.466C185.283 256.073 181.368 260.43 176.334 263.585L178.458 266.975C184.144 263.41 188.549 258.487 191.665 252.254L188.087 250.466ZM176.352 263.574C171.346 266.637 165.478 268.2 158.676 268.2V272.2C166.114 272.2 172.725 270.483 178.44 266.986L176.352 263.574ZM304.276 269V271H305.838L306.217 269.485L304.276 269ZM281.116 269L279.452 270.109L280.046 271H281.116V269ZM281.476 264.68L281.239 262.694L280.41 262.793L279.898 263.452L281.476 264.68ZM289.516 263.72L289.753 265.706L291.516 265.495V263.72H289.516ZM289.516 202.16H291.516L287.716 201.288L289.516 202.16ZM261.796 259.4L262.188 261.361L263.163 261.166L263.596 260.272L261.796 259.4ZM256.516 259.4L254.725 260.29L255.162 261.169L256.124 261.361L256.516 259.4ZM228.796 203.6L230.587 202.71L226.796 203.6H228.796ZM228.796 263.48H226.796V265.48H228.796V263.48ZM237.076 268.04L235.158 267.476L235.146 267.515L235.136 267.555L237.076 268.04ZM236.836 269V271H238.398L238.777 269.485L236.836 269ZM214.156 269L212.492 270.109L213.086 271H214.156V269ZM214.516 264.68L214.279 262.694L213.45 262.793L212.938 263.452L214.516 264.68ZM222.556 263.72L222.793 265.706L224.556 265.495V263.72H222.556ZM222.556 197.12H224.556V195.12H222.556V197.12ZM214.276 192.56L216.195 193.124L216.207 193.085L216.217 193.045L214.276 192.56ZM214.516 191.6V189.6H212.955L212.576 191.115L214.516 191.6ZM229.996 191.6L231.787 190.708L231.235 189.6H229.996V191.6ZM259.516 250.88L257.726 251.772L259.538 255.411L261.315 251.754L259.516 250.88ZM288.316 191.6V189.6H287.064L286.517 190.726L288.316 191.6ZM304.636 191.6L306.3 190.491L305.707 189.6H304.636V191.6ZM304.276 195.92L304.513 197.906L305.342 197.807L305.855 197.148L304.276 195.92ZM296.236 196.88L295.999 194.894L294.236 195.105V196.88H296.236ZM296.236 263.48H294.236V265.48H296.236V263.48ZM304.516 268.04L302.598 267.476L302.586 267.515L302.576 267.555L304.516 268.04ZM304.276 267H281.116V271H304.276V267ZM282.78 267.891C282.749 267.844 282.636 267.633 282.636 267.08H278.636C278.636 268.127 278.844 269.196 279.452 270.109L282.78 267.891ZM282.636 267.08C282.636 266.662 282.757 266.291 283.055 265.908L279.898 263.452C279.075 264.509 278.636 265.738 278.636 267.08H282.636ZM281.713 266.666L289.753 265.706L289.279 261.734L281.239 262.694L281.713 266.666ZM291.516 263.72V202.16H287.516V263.72H291.516ZM287.716 201.288L259.996 258.528L263.596 260.272L291.316 203.032L287.716 201.288ZM261.404 257.439C260.753 257.569 260.007 257.64 259.156 257.64V261.64C260.226 261.64 261.239 261.551 262.188 261.361L261.404 257.439ZM259.156 257.64C258.306 257.64 257.559 257.569 256.908 257.439L256.124 261.361C257.073 261.551 258.087 261.64 259.156 261.64V257.64ZM258.307 258.51L230.587 202.71L227.005 204.49L254.725 260.29L258.307 258.51ZM226.796 203.6V263.48H230.796V203.6H226.796ZM228.796 265.48H235.756V261.48H228.796V265.48ZM235.756 265.48C235.937 265.48 236.021 265.5 236.036 265.505C236.045 265.508 235.974 265.488 235.879 265.405C235.833 265.365 235.792 265.318 235.757 265.267C235.722 265.217 235.7 265.171 235.687 265.137C235.662 265.071 235.676 265.066 235.676 265.16H239.676C239.676 264.217 239.395 263.166 238.513 262.395C237.683 261.668 236.644 261.48 235.756 261.48V265.48ZM235.676 265.16C235.676 265.397 235.561 266.103 235.158 267.476L238.995 268.604C239.391 267.257 239.676 266.043 239.676 265.16H235.676ZM235.136 267.555L234.896 268.515L238.777 269.485L239.017 268.525L235.136 267.555ZM236.836 267H214.156V271H236.836V267ZM215.82 267.891C215.789 267.844 215.676 267.633 215.676 267.08H211.676C211.676 268.127 211.884 269.196 212.492 270.109L215.82 267.891ZM215.676 267.08C215.676 266.662 215.797 266.291 216.095 265.908L212.938 263.452C212.115 264.509 211.676 265.738 211.676 267.08H215.676ZM214.753 266.666L222.793 265.706L222.319 261.734L214.279 262.694L214.753 266.666ZM224.556 263.72V197.12H220.556V263.72H224.556ZM222.556 195.12H215.596V199.12H222.556V195.12ZM215.596 195.12C215.416 195.12 215.332 195.1 215.316 195.095C215.307 195.092 215.379 195.112 215.473 195.195C215.519 195.235 215.561 195.282 215.596 195.333C215.63 195.383 215.652 195.429 215.665 195.463C215.69 195.529 215.676 195.534 215.676 195.44H211.676C211.676 196.383 211.958 197.434 212.839 198.205C213.669 198.932 214.709 199.12 215.596 199.12V195.12ZM215.676 195.44C215.676 195.203 215.791 194.497 216.195 193.124L212.358 191.996C211.961 193.343 211.676 194.557 211.676 195.44H215.676ZM216.217 193.045L216.457 192.085L212.576 191.115L212.336 192.075L216.217 193.045ZM214.516 193.6H229.996V189.6H214.516V193.6ZM228.206 192.492L257.726 251.772L261.307 249.988L231.787 190.708L228.206 192.492ZM261.315 251.754L290.115 192.474L286.517 190.726L257.717 250.006L261.315 251.754ZM288.316 193.6H304.636V189.6H288.316V193.6ZM302.972 192.709C303.004 192.756 303.116 192.967 303.116 193.52H307.116C307.116 192.473 306.909 191.404 306.3 190.491L302.972 192.709ZM303.116 193.52C303.116 193.938 302.995 194.309 302.698 194.692L305.855 197.148C306.677 196.091 307.116 194.862 307.116 193.52H303.116ZM304.039 193.934L295.999 194.894L296.473 198.866L304.513 197.906L304.039 193.934ZM294.236 196.88V263.48H298.236V196.88H294.236ZM296.236 265.48H303.196V261.48H296.236V265.48ZM303.196 265.48C303.377 265.48 303.461 265.5 303.476 265.505C303.485 265.508 303.414 265.488 303.319 265.405C303.273 265.365 303.232 265.318 303.197 265.267C303.162 265.217 303.14 265.171 303.127 265.137C303.102 265.071 303.116 265.066 303.116 265.16H307.116C307.116 264.217 306.835 263.166 305.953 262.395C305.123 261.668 304.084 261.48 303.196 261.48V265.48ZM303.116 265.16C303.116 265.397 303.001 266.103 302.598 267.476L306.435 268.604C306.831 267.257 307.116 266.043 307.116 265.16H303.116ZM302.576 267.555L302.336 268.515L306.217 269.485L306.457 268.525L302.576 267.555ZM380.867 269V271H381.559L382.103 270.573L380.867 269ZM325.067 269L323.403 270.109L323.997 271H325.067V269ZM325.427 264.68L325.19 262.694L324.361 262.793L323.848 263.452L325.427 264.68ZM333.467 263.72L333.704 265.706L335.467 265.495V263.72H333.467ZM333.467 197.12H335.467V195.12H333.467V197.12ZM325.187 192.56L327.106 193.124L327.118 193.085L327.127 193.045L325.187 192.56ZM325.427 191.6V189.6H323.866L323.487 191.115L325.427 191.6ZM379.667 191.6L380.903 190.027L380.359 189.6H379.667V191.6ZM382.547 194.72L384.547 194.69L384.538 194.101L384.211 193.611L382.547 194.72ZM382.787 210.56L383.897 212.224L384.803 211.62L384.787 210.53L382.787 210.56ZM378.467 210.2L376.518 210.647L376.677 211.341L377.239 211.779L378.467 210.2ZM375.467 197.12L377.417 196.673L377.06 195.12H375.467V197.12ZM340.187 197.12V195.12H338.187V197.12H340.187ZM340.187 226.76H338.187V228.76H340.187V226.76ZM364.187 226.76V228.76H365.876L366.159 227.095L364.187 226.76ZM365.267 220.4L367.239 220.735L367.24 220.729L365.267 220.4ZM369.227 218.84L370.122 217.051L370.06 217.02L369.996 216.994L369.227 218.84ZM369.947 219.2H371.947V217.964L370.842 217.411L369.947 219.2ZM369.947 240.32L371.057 241.984L371.947 241.39V240.32H369.947ZM365.627 239.96L363.66 240.323L363.799 241.071L364.399 241.539L365.627 239.96ZM364.187 232.16L366.154 231.797L365.852 230.16H364.187V232.16ZM340.187 232.16V230.16H338.187V232.16H340.187ZM340.187 263.48H338.187V265.48H340.187V263.48ZM376.667 263.48V265.48H378.26L378.617 263.927L376.667 263.48ZM379.667 250.4L378.439 248.821L377.877 249.259L377.718 249.953L379.667 250.4ZM383.987 250.04L385.987 250.07L386.003 248.98L385.097 248.376L383.987 250.04ZM383.747 265.88L385.411 266.989L385.738 266.499L385.747 265.91L383.747 265.88ZM380.867 267H325.067V271H380.867V267ZM326.731 267.891C326.7 267.844 326.587 267.633 326.587 267.08H322.587C322.587 268.127 322.794 269.196 323.403 270.109L326.731 267.891ZM326.587 267.08C326.587 266.662 326.708 266.291 327.006 265.908L323.848 263.452C323.026 264.509 322.587 265.738 322.587 267.08H326.587ZM325.664 266.666L333.704 265.706L333.23 261.734L325.19 262.694L325.664 266.666ZM335.467 263.72V197.12H331.467V263.72H335.467ZM333.467 195.12H326.507V199.12H333.467V195.12ZM326.507 195.12C326.327 195.12 326.243 195.1 326.227 195.095C326.218 195.092 326.29 195.112 326.384 195.195C326.43 195.235 326.472 195.282 326.507 195.333C326.541 195.383 326.563 195.429 326.576 195.463C326.601 195.529 326.587 195.534 326.587 195.44H322.587C322.587 196.383 322.869 197.434 323.75 198.205C324.58 198.932 325.62 199.12 326.507 199.12V195.12ZM326.587 195.44C326.587 195.203 326.702 194.497 327.106 193.124L323.268 191.996C322.872 193.343 322.587 194.557 322.587 195.44H326.587ZM327.127 193.045L327.367 192.085L323.487 191.115L323.247 192.075L327.127 193.045ZM325.427 193.6H379.667V189.6H325.427V193.6ZM378.432 193.173C379.383 193.92 380.199 194.803 380.883 195.829L384.211 193.611C383.295 192.237 382.191 191.04 380.903 190.027L378.432 193.173ZM380.547 194.75L380.787 210.59L384.787 210.53L384.547 194.69L380.547 194.75ZM381.678 208.896C381.631 208.927 381.42 209.04 380.867 209.04V213.04C381.914 213.04 382.984 212.833 383.897 212.224L381.678 208.896ZM380.867 209.04C380.449 209.04 380.078 208.919 379.695 208.621L377.239 211.779C378.297 212.601 379.525 213.04 380.867 213.04V209.04ZM380.417 209.753L377.417 196.673L373.518 197.567L376.518 210.647L380.417 209.753ZM375.467 195.12H340.187V199.12H375.467V195.12ZM338.187 197.12V226.76H342.187V197.12H338.187ZM340.187 228.76H364.187V224.76H340.187V228.76ZM366.159 227.095L367.239 220.735L363.295 220.065L362.215 226.425L366.159 227.095ZM367.24 220.729C367.28 220.489 367.33 220.333 367.37 220.239C367.409 220.147 367.431 220.133 367.411 220.153C367.386 220.179 367.343 220.212 367.292 220.232C367.247 220.25 367.243 220.24 367.307 220.24V216.24C366.276 216.24 365.272 216.593 364.503 217.407C363.789 218.162 363.45 219.135 363.294 220.071L367.24 220.729ZM367.307 220.24C367.198 220.24 367.151 220.225 367.199 220.235C367.237 220.243 367.312 220.262 367.431 220.299C367.67 220.374 368.007 220.498 368.458 220.686L369.996 216.994C369.487 216.782 369.025 216.606 368.624 216.481C368.274 216.372 367.789 216.24 367.307 216.24V220.24ZM368.333 220.629L369.053 220.989L370.842 217.411L370.122 217.051L368.333 220.629ZM367.947 219.2V240.32H371.947V219.2H367.947ZM368.838 238.656C368.791 238.687 368.58 238.8 368.027 238.8V242.8C369.074 242.8 370.144 242.593 371.057 241.984L368.838 238.656ZM368.027 238.8C367.609 238.8 367.238 238.679 366.855 238.381L364.399 241.539C365.457 242.361 366.685 242.8 368.027 242.8V238.8ZM367.594 239.597L366.154 231.797L362.22 232.523L363.66 240.323L367.594 239.597ZM364.187 230.16H340.187V234.16H364.187V230.16ZM338.187 232.16V263.48H342.187V232.16H338.187ZM340.187 265.48H376.667V261.48H340.187V265.48ZM378.617 263.927L381.617 250.847L377.718 249.953L374.718 263.033L378.617 263.927ZM380.895 251.979C381.278 251.681 381.649 251.56 382.067 251.56V247.56C380.725 247.56 379.497 247.999 378.439 248.821L380.895 251.979ZM382.067 251.56C382.62 251.56 382.831 251.673 382.878 251.704L385.097 248.376C384.184 247.767 383.114 247.56 382.067 247.56V251.56ZM381.987 250.01L381.747 265.85L385.747 265.91L385.987 250.07L381.987 250.01ZM382.083 264.771C381.399 265.797 380.583 266.68 379.632 267.427L382.103 270.573C383.391 269.56 384.495 268.363 385.411 266.989L382.083 264.771ZM456.552 269V271H457.243L457.787 270.573L456.552 269ZM403.752 269L402.087 270.109L402.681 271H403.752V269ZM404.112 264.68L403.874 262.694L403.045 262.793L402.533 263.452L404.112 264.68ZM412.152 263.72L412.389 265.706L414.152 265.495V263.72H412.152ZM412.152 197.12H414.152V195.12H412.152V197.12ZM403.872 192.56L405.79 193.124L405.802 193.085L405.812 193.045L403.872 192.56ZM404.112 191.6V189.6H402.55L402.171 191.115L404.112 191.6ZM428.472 191.6L430.136 190.491L429.542 189.6H428.472V191.6ZM428.112 195.92L428.318 197.909L429.167 197.821L429.69 197.148L428.112 195.92ZM418.872 196.88L418.665 194.891L416.872 195.077V196.88H418.872ZM418.872 263.48H416.872V265.48H418.872V263.48ZM452.352 263.48V265.48H453.96L454.305 263.908L452.352 263.48ZM455.352 249.8L454.124 248.221L453.553 248.665L453.398 249.372L455.352 249.8ZM459.672 249.44L461.671 249.469L461.687 248.38L460.781 247.776L459.672 249.44ZM459.432 265.88L461.096 266.989L461.423 266.499L461.431 265.909L459.432 265.88ZM456.552 267H403.752V271H456.552V267ZM405.416 267.891C405.384 267.844 405.272 267.633 405.272 267.08H401.272C401.272 268.127 401.479 269.196 402.087 270.109L405.416 267.891ZM405.272 267.08C405.272 266.662 405.393 266.291 405.69 265.908L402.533 263.452C401.711 264.509 401.272 265.738 401.272 267.08H405.272ZM404.349 266.666L412.389 265.706L411.914 261.734L403.874 262.694L404.349 266.666ZM414.152 263.72V197.12H410.152V263.72H414.152ZM412.152 195.12H405.192V199.12H412.152V195.12ZM405.192 195.12C405.011 195.12 404.927 195.1 404.912 195.095C404.902 195.092 404.974 195.112 405.069 195.195C405.114 195.235 405.156 195.282 405.191 195.333C405.226 195.383 405.248 195.429 405.261 195.463C405.286 195.529 405.272 195.534 405.272 195.44H401.272C401.272 196.383 401.553 197.434 402.435 198.205C403.265 198.932 404.304 199.12 405.192 199.12V195.12ZM405.272 195.44C405.272 195.203 405.387 194.497 405.79 193.124L401.953 191.996C401.557 193.343 401.272 194.557 401.272 195.44H405.272ZM405.812 193.045L406.052 192.085L402.171 191.115L401.931 192.075L405.812 193.045ZM404.112 193.6H428.472V189.6H404.112V193.6ZM426.807 192.709C426.839 192.756 426.952 192.967 426.952 193.52H430.952C430.952 192.473 430.744 191.404 430.136 190.491L426.807 192.709ZM426.952 193.52C426.952 193.938 426.831 194.309 426.533 194.692L429.69 197.148C430.513 196.091 430.952 194.862 430.952 193.52H426.952ZM427.905 193.931L418.665 194.891L419.078 198.869L428.318 197.909L427.905 193.931ZM416.872 196.88V263.48H420.872V196.88H416.872ZM418.872 265.48H452.352V261.48H418.872V265.48ZM454.305 263.908L457.305 250.228L453.398 249.372L450.398 263.052L454.305 263.908ZM456.579 251.379C456.962 251.081 457.333 250.96 457.752 250.96V246.96C456.41 246.96 455.181 247.399 454.124 248.221L456.579 251.379ZM457.752 250.96C458.304 250.96 458.515 251.073 458.562 251.104L460.781 247.776C459.868 247.167 458.799 246.96 457.752 246.96V250.96ZM457.672 249.411L457.432 265.851L461.431 265.909L461.671 249.469L457.672 249.411ZM457.767 264.771C457.083 265.797 456.267 266.68 455.316 267.427L457.787 270.573C459.076 269.56 460.18 268.363 461.096 266.989L457.767 264.771ZM532.845 269V271H533.537L534.081 270.573L532.845 269ZM477.045 269L475.381 270.109L475.975 271H477.045V269ZM477.405 264.68L477.168 262.694L476.339 262.793L475.827 263.452L477.405 264.68ZM485.445 263.72L485.682 265.706L487.445 265.495V263.72H485.445ZM485.445 197.12H487.445V195.12H485.445V197.12ZM477.165 192.56L479.084 193.124L479.096 193.085L479.106 193.045L477.165 192.56ZM477.405 191.6V189.6H475.844L475.465 191.115L477.405 191.6ZM531.645 191.6L532.881 190.027L532.337 189.6H531.645V191.6ZM534.525 194.72L536.525 194.69L536.516 194.101L536.189 193.611L534.525 194.72ZM534.765 210.56L535.875 212.224L536.782 211.62L536.765 210.53L534.765 210.56ZM530.445 210.2L528.496 210.647L528.655 211.341L529.217 211.779L530.445 210.2ZM527.445 197.12L529.395 196.673L529.039 195.12H527.445V197.12ZM492.165 197.12V195.12H490.165V197.12H492.165ZM492.165 226.76H490.165V228.76H492.165V226.76ZM516.165 226.76V228.76H517.854L518.137 227.095L516.165 226.76ZM517.245 220.4L519.217 220.735L519.218 220.729L517.245 220.4ZM521.205 218.84L522.1 217.051L522.038 217.02L521.975 216.994L521.205 218.84ZM521.925 219.2H523.925V217.964L522.82 217.411L521.925 219.2ZM521.925 240.32L523.035 241.984L523.925 241.39V240.32H521.925ZM517.605 239.96L515.639 240.323L515.777 241.071L516.377 241.539L517.605 239.96ZM516.165 232.16L518.132 231.797L517.83 230.16H516.165V232.16ZM492.165 232.16V230.16H490.165V232.16H492.165ZM492.165 263.48H490.165V265.48H492.165V263.48ZM528.645 263.48V265.48H530.239L530.595 263.927L528.645 263.48ZM531.645 250.4L530.417 248.821L529.855 249.259L529.696 249.953L531.645 250.4ZM535.965 250.04L537.965 250.07L537.982 248.98L537.075 248.376L535.965 250.04ZM535.725 265.88L537.389 266.989L537.716 266.499L537.725 265.91L535.725 265.88ZM532.845 267H477.045V271H532.845V267ZM478.709 267.891C478.678 267.844 478.565 267.633 478.565 267.08H474.565C474.565 268.127 474.773 269.196 475.381 270.109L478.709 267.891ZM478.565 267.08C478.565 266.662 478.686 266.291 478.984 265.908L475.827 263.452C475.004 264.509 474.565 265.738 474.565 267.08H478.565ZM477.642 266.666L485.682 265.706L485.208 261.734L477.168 262.694L477.642 266.666ZM487.445 263.72V197.12H483.445V263.72H487.445ZM485.445 195.12H478.485V199.12H485.445V195.12ZM478.485 195.12C478.305 195.12 478.221 195.1 478.205 195.095C478.196 195.092 478.268 195.112 478.362 195.195C478.408 195.235 478.45 195.282 478.485 195.333C478.519 195.383 478.541 195.429 478.554 195.463C478.579 195.529 478.565 195.534 478.565 195.44H474.565C474.565 196.383 474.847 197.434 475.728 198.205C476.559 198.932 477.598 199.12 478.485 199.12V195.12ZM478.565 195.44C478.565 195.203 478.68 194.497 479.084 193.124L475.247 191.996C474.85 193.343 474.565 194.557 474.565 195.44H478.565ZM479.106 193.045L479.346 192.085L475.465 191.115L475.225 192.075L479.106 193.045ZM477.405 193.6H531.645V189.6H477.405V193.6ZM530.41 193.173C531.361 193.92 532.177 194.803 532.861 195.829L536.189 193.611C535.274 192.237 534.17 191.04 532.881 190.027L530.41 193.173ZM532.526 194.75L532.766 210.59L536.765 210.53L536.525 194.69L532.526 194.75ZM533.656 208.896C533.609 208.927 533.398 209.04 532.845 209.04V213.04C533.893 213.04 534.962 212.833 535.875 212.224L533.656 208.896ZM532.845 209.04C532.427 209.04 532.056 208.919 531.673 208.621L529.217 211.779C530.275 212.601 531.503 213.04 532.845 213.04V209.04ZM532.395 209.753L529.395 196.673L525.496 197.567L528.496 210.647L532.395 209.753ZM527.445 195.12H492.165V199.12H527.445V195.12ZM490.165 197.12V226.76H494.165V197.12H490.165ZM492.165 228.76H516.165V224.76H492.165V228.76ZM518.137 227.095L519.217 220.735L515.274 220.065L514.194 226.425L518.137 227.095ZM519.218 220.729C519.258 220.489 519.308 220.333 519.348 220.239C519.387 220.147 519.409 220.133 519.389 220.153C519.365 220.179 519.321 220.212 519.271 220.232C519.226 220.25 519.221 220.24 519.285 220.24V216.24C518.254 216.24 517.25 216.593 516.481 217.407C515.768 218.162 515.429 219.135 515.273 220.071L519.218 220.729ZM519.285 220.24C519.176 220.24 519.129 220.225 519.177 220.235C519.216 220.243 519.29 220.262 519.409 220.299C519.648 220.374 519.986 220.498 520.436 220.686L521.975 216.994C521.465 216.782 521.003 216.606 520.602 216.481C520.252 216.372 519.767 216.24 519.285 216.24V220.24ZM520.311 220.629L521.031 220.989L522.82 217.411L522.1 217.051L520.311 220.629ZM519.925 219.2V240.32H523.925V219.2H519.925ZM520.816 238.656C520.769 238.687 520.558 238.8 520.005 238.8V242.8C521.053 242.8 522.122 242.593 523.035 241.984L520.816 238.656ZM520.005 238.8C519.587 238.8 519.216 238.679 518.833 238.381L516.377 241.539C517.435 242.361 518.663 242.8 520.005 242.8V238.8ZM519.572 239.597L518.132 231.797L514.199 232.523L515.639 240.323L519.572 239.597ZM516.165 230.16H492.165V234.16H516.165V230.16ZM490.165 232.16V263.48H494.165V232.16H490.165ZM492.165 265.48H528.645V261.48H492.165V265.48ZM530.595 263.927L533.595 250.847L529.696 249.953L526.696 263.033L530.595 263.927ZM532.873 251.979C533.256 251.681 533.627 251.56 534.045 251.56V247.56C532.703 247.56 531.475 247.999 530.417 248.821L532.873 251.979ZM534.045 251.56C534.598 251.56 534.809 251.673 534.856 251.704L537.075 248.376C536.162 247.767 535.093 247.56 534.045 247.56V251.56ZM533.966 250.01L533.726 265.85L537.725 265.91L537.965 250.07L533.966 250.01ZM534.061 264.771C533.377 265.797 532.561 266.68 531.61 267.427L534.081 270.573C535.369 269.56 536.474 268.363 537.389 266.989L534.061 264.771ZM555.37 261.8L553.37 261.832L553.376 262.226L553.531 262.588L555.37 261.8ZM555.13 246.8L554.02 245.136L553.113 245.741L553.13 246.832L555.13 246.8ZM559.45 247.16L561.4 246.717L561.242 246.02L560.678 245.581L559.45 247.16ZM562.69 261.44L560.739 261.883L560.965 262.877L561.902 263.278L562.69 261.44ZM570.13 263.72L569.726 265.679L569.737 265.681L570.13 263.72ZM594.37 260.48L595.558 262.088L595.564 262.084L594.37 260.48ZM595.93 239.48L594.582 240.958L594.594 240.969L594.606 240.98L595.93 239.48ZM581.53 232.28L582.169 230.385L582.162 230.383L582.155 230.38L581.53 232.28ZM566.41 225.92L565.37 227.628L565.391 227.642L565.413 227.654L566.41 225.92ZM558.37 218.6L556.646 219.614L556.664 219.644L556.682 219.674L558.37 218.6ZM562.45 195.44L563.659 197.033L563.668 197.026L563.678 197.019L562.45 195.44ZM599.53 194.72L601.048 193.418L600.778 193.103L600.405 192.922L599.53 194.72ZM601.81 198.32L603.809 198.287L603.803 197.894L603.648 197.532L601.81 198.32ZM602.05 212.72L603.159 214.384L604.068 213.778L604.049 212.687L602.05 212.72ZM597.73 212.36L595.784 212.825L595.948 213.508L596.502 213.939L597.73 212.36ZM594.49 198.8L596.435 198.335L596.201 197.358L595.278 196.962L594.49 198.8ZM567.37 199.4L568.556 201.01L568.57 201L568.583 200.99L567.37 199.4ZM564.49 215.84L562.781 216.88L562.797 216.906L562.814 216.933L564.49 215.84ZM570.61 221L569.638 222.748L569.649 222.754L569.659 222.759L570.61 221ZM582.85 226.04L583.508 224.151L583.5 224.148L583.491 224.146L582.85 226.04ZM601.45 235.76L600.084 237.221L600.084 237.221L601.45 235.76ZM599.53 264.56L600.738 266.154L600.746 266.148L600.754 266.141L599.53 264.56ZM567.13 269L566.674 270.947L566.694 270.952L566.713 270.956L567.13 269ZM557.65 265.4L556.131 266.702L556.345 266.952L556.629 267.12L557.65 265.4ZM556.33 263.6L554.634 264.66L554.634 264.66L556.33 263.6ZM557.369 261.768L557.129 246.768L553.13 246.832L553.37 261.832L557.369 261.768ZM556.239 248.464C556.286 248.433 556.497 248.32 557.05 248.32V244.32C556.002 244.32 554.933 244.527 554.02 245.136L556.239 248.464ZM557.05 248.32C557.468 248.32 557.839 248.441 558.222 248.739L560.678 245.581C559.62 244.759 558.392 244.32 557.05 244.32V248.32ZM557.499 247.603L560.739 261.883L564.64 260.997L561.4 246.717L557.499 247.603ZM561.902 263.278C564.281 264.298 566.892 265.095 569.726 265.679L570.533 261.761C567.927 261.225 565.578 260.502 563.478 259.602L561.902 263.278ZM569.737 265.681C572.675 266.269 575.726 266.56 578.89 266.56V262.56C575.973 262.56 573.185 262.291 570.522 261.759L569.737 265.681ZM578.89 266.56C585.772 266.56 591.41 265.154 595.558 262.088L593.181 258.872C589.969 261.246 585.287 262.56 578.89 262.56V266.56ZM595.564 262.084C599.864 258.882 602.01 254.389 602.01 248.84H598.01C598.01 253.211 596.395 256.478 593.175 258.876L595.564 262.084ZM602.01 248.84C602.01 244.464 600.431 240.784 597.253 237.98L594.606 240.98C596.868 242.976 598.01 245.536 598.01 248.84H602.01ZM597.277 238.002C594.237 235.23 589.105 232.724 582.169 230.385L580.891 234.175C587.714 236.476 592.182 238.77 594.582 240.958L597.277 238.002ZM582.155 230.38C575.903 228.323 571.003 226.252 567.406 224.186L565.413 227.654C569.336 229.908 574.516 232.077 580.904 234.18L582.155 230.38ZM567.45 224.212C563.938 222.074 561.523 219.83 560.057 217.526L556.682 219.674C558.577 222.65 561.521 225.286 565.37 227.628L567.45 224.212ZM560.094 217.586C558.695 215.208 557.97 212.446 557.97 209.24H553.97C553.97 213.074 554.845 216.552 556.646 219.614L560.094 217.586ZM557.97 209.24C557.97 203.879 559.887 199.897 563.659 197.033L561.24 193.847C556.372 197.543 553.97 202.761 553.97 209.24H557.97ZM563.678 197.019C567.529 194.023 573.039 192.4 580.45 192.4V188.4C572.501 188.4 566.01 190.137 561.222 193.861L563.678 197.019ZM580.45 192.4C586.957 192.4 593.016 193.776 598.655 196.518L600.405 192.922C594.203 189.904 587.543 188.4 580.45 188.4V192.4ZM598.011 196.022C598.425 196.504 598.806 197.023 599.154 197.58L602.546 195.46C602.094 194.737 601.595 194.056 601.048 193.418L598.011 196.022ZM599.154 197.58C599.512 198.153 599.78 198.661 599.971 199.108L603.648 197.532C603.359 196.859 602.988 196.167 602.546 195.46L599.154 197.58ZM599.81 198.353L600.05 212.753L604.049 212.687L603.809 198.287L599.81 198.353ZM600.94 211.056C600.893 211.087 600.682 211.2 600.13 211.2V215.2C601.177 215.2 602.246 214.993 603.159 214.384L600.94 211.056ZM600.13 211.2C599.712 211.2 599.34 211.079 598.958 210.781L596.502 213.939C597.559 214.761 598.788 215.2 600.13 215.2V211.2ZM599.675 211.895L596.435 198.335L592.544 199.265L595.784 212.825L599.675 211.895ZM595.278 196.962C590.548 194.935 585.6 193.92 580.45 193.92V197.92C585.059 197.92 589.471 198.825 593.702 200.638L595.278 196.962ZM580.45 193.92C574.535 193.92 569.678 195.123 566.156 197.81L568.583 200.99C571.141 199.037 575.005 197.92 580.45 197.92V193.92ZM566.183 197.79C562.553 200.465 560.81 204.389 560.81 209.24H564.81C564.81 205.451 566.107 202.815 568.556 201.01L566.183 197.79ZM560.81 209.24C560.81 212.097 561.437 214.672 562.781 216.88L566.198 214.8C565.302 213.328 564.81 211.503 564.81 209.24H560.81ZM562.814 216.933C564.259 219.148 566.605 221.063 569.638 222.748L571.581 219.252C568.855 217.737 567.12 216.212 566.165 214.747L562.814 216.933ZM569.659 222.759C572.76 224.436 576.959 226.158 582.209 227.934L583.491 224.146C578.34 222.402 574.379 220.764 571.561 219.241L569.659 222.759ZM582.191 227.929C590.831 230.941 596.713 234.07 600.084 237.221L602.815 234.299C598.827 230.57 592.308 227.219 583.508 224.151L582.191 227.929ZM600.084 237.221C603.338 240.263 604.97 244.084 604.97 248.84H608.97C608.97 243.036 606.921 238.137 602.815 234.299L600.084 237.221ZM604.97 248.84C604.97 254.903 602.744 259.542 598.305 262.979L600.754 266.141C606.236 261.898 608.97 256.057 608.97 248.84H604.97ZM598.321 262.966C593.827 266.373 587.429 268.2 578.89 268.2V272.2C587.95 272.2 595.312 270.267 600.738 266.154L598.321 262.966ZM578.89 268.2C574.941 268.2 571.161 267.813 567.546 267.044L566.713 270.956C570.618 271.787 574.678 272.2 578.89 272.2V268.2ZM567.585 267.053C563.969 266.206 561.012 265.07 558.671 263.68L556.629 267.12C559.408 268.77 562.771 270.034 566.674 270.947L567.585 267.053ZM559.168 264.098C558.755 263.616 558.374 263.097 558.026 262.54L554.634 264.66C555.086 265.383 555.585 266.064 556.131 266.702L559.168 264.098ZM558.026 262.54C557.668 261.967 557.399 261.459 557.208 261.012L553.531 262.588C553.82 263.261 554.192 263.953 554.634 264.66L558.026 262.54ZM625.851 261.8L623.851 261.832L623.858 262.226L624.013 262.588L625.851 261.8ZM625.611 246.8L624.502 245.136L623.594 245.741L623.611 246.832L625.611 246.8ZM629.931 247.16L631.881 246.717L631.723 246.02L631.159 245.581L629.931 247.16ZM633.171 261.44L631.221 261.883L631.446 262.877L632.383 263.278L633.171 261.44ZM640.611 263.72L640.208 265.679L640.219 265.681L640.611 263.72ZM664.851 260.48L666.04 262.088L666.045 262.084L664.851 260.48ZM666.411 239.48L665.063 240.958L665.075 240.969L665.088 240.98L666.411 239.48ZM652.011 232.28L652.65 230.385L652.643 230.383L652.636 230.38L652.011 232.28ZM636.891 225.92L635.851 227.628L635.873 227.642L635.895 227.654L636.891 225.92ZM628.851 218.6L627.127 219.614L627.145 219.644L627.164 219.674L628.851 218.6ZM632.931 195.44L634.14 197.033L634.15 197.026L634.159 197.019L632.931 195.44ZM670.011 194.72L671.529 193.418L671.259 193.103L670.886 192.922L670.011 194.72ZM672.291 198.32L674.291 198.287L674.284 197.894L674.129 197.532L672.291 198.32ZM672.531 212.72L673.64 214.384L674.549 213.778L674.531 212.687L672.531 212.72ZM668.211 212.36L666.266 212.825L666.429 213.508L666.983 213.939L668.211 212.36ZM664.971 198.8L666.916 198.335L666.683 197.358L665.759 196.962L664.971 198.8ZM637.851 199.4L639.037 201.01L639.051 201L639.064 200.99L637.851 199.4ZM634.971 215.84L633.263 216.88L633.279 216.906L633.296 216.933L634.971 215.84ZM641.091 221L640.12 222.748L640.13 222.754L640.14 222.759L641.091 221ZM653.331 226.04L653.989 224.151L653.981 224.148L653.972 224.146L653.331 226.04ZM671.931 235.76L670.565 237.221L670.565 237.221L671.931 235.76ZM670.011 264.56L671.219 266.154L671.227 266.148L671.235 266.141L670.011 264.56ZM637.611 269L637.155 270.947L637.175 270.952L637.195 270.956L637.611 269ZM628.131 265.4L626.612 266.702L626.827 266.952L627.11 267.12L628.131 265.4ZM626.811 263.6L625.115 264.66L625.115 264.66L626.811 263.6ZM627.851 261.768L627.611 246.768L623.611 246.832L623.851 261.832L627.851 261.768ZM626.72 248.464C626.767 248.433 626.978 248.32 627.531 248.32V244.32C626.484 244.32 625.414 244.527 624.502 245.136L626.72 248.464ZM627.531 248.32C627.949 248.32 628.32 248.441 628.703 248.739L631.159 245.581C630.102 244.759 628.873 244.32 627.531 244.32V248.32ZM627.981 247.603L631.221 261.883L635.121 260.997L631.881 246.717L627.981 247.603ZM632.383 263.278C634.763 264.298 637.374 265.095 640.208 265.679L641.014 261.761C638.408 261.225 636.059 260.502 633.959 259.602L632.383 263.278ZM640.219 265.681C643.156 266.269 646.208 266.56 649.371 266.56V262.56C646.454 262.56 643.666 262.291 641.003 261.759L640.219 265.681ZM649.371 266.56C656.253 266.56 661.892 265.154 666.04 262.088L663.662 258.872C660.45 261.246 655.769 262.56 649.371 262.56V266.56ZM666.045 262.084C670.346 258.882 672.491 254.389 672.491 248.84H668.491C668.491 253.211 666.876 256.478 663.656 258.876L666.045 262.084ZM672.491 248.84C672.491 244.464 670.912 240.784 667.734 237.98L665.088 240.98C667.35 242.976 668.491 245.536 668.491 248.84H672.491ZM667.758 238.002C664.718 235.23 659.587 232.724 652.65 230.385L651.372 234.175C658.195 236.476 662.664 238.77 665.063 240.958L667.758 238.002ZM652.636 230.38C646.385 228.323 641.485 226.252 637.887 224.186L635.895 227.654C639.817 229.908 644.997 232.077 651.386 234.18L652.636 230.38ZM637.931 224.212C634.419 222.074 632.004 219.83 630.538 217.526L627.164 219.674C629.058 222.65 632.003 225.286 635.851 227.628L637.931 224.212ZM630.575 217.586C629.176 215.208 628.451 212.446 628.451 209.24H624.451C624.451 213.074 625.326 216.552 627.127 219.614L630.575 217.586ZM628.451 209.24C628.451 203.879 630.369 199.897 634.14 197.033L631.722 193.847C626.853 197.543 624.451 202.761 624.451 209.24H628.451ZM634.159 197.019C638.011 194.023 643.52 192.4 650.931 192.4V188.4C642.982 188.4 636.491 190.137 631.703 193.861L634.159 197.019ZM650.931 192.4C657.438 192.4 663.498 193.776 669.136 196.518L670.886 192.922C664.684 189.904 658.024 188.4 650.931 188.4V192.4ZM668.492 196.022C668.906 196.504 669.287 197.023 669.635 197.58L673.027 195.46C672.575 194.737 672.076 194.056 671.529 193.418L668.492 196.022ZM669.635 197.58C669.993 198.153 670.261 198.661 670.453 199.108L674.129 197.532C673.841 196.859 673.469 196.167 673.027 195.46L669.635 197.58ZM670.291 198.353L670.531 212.753L674.531 212.687L674.291 198.287L670.291 198.353ZM671.422 211.056C671.375 211.087 671.164 211.2 670.611 211.2V215.2C671.658 215.2 672.727 214.993 673.64 214.384L671.422 211.056ZM670.611 211.2C670.193 211.2 669.822 211.079 669.439 210.781L666.983 213.939C668.04 214.761 669.269 215.2 670.611 215.2V211.2ZM670.156 211.895L666.916 198.335L663.026 199.265L666.266 212.825L670.156 211.895ZM665.759 196.962C661.03 194.935 656.081 193.92 650.931 193.92V197.92C655.54 197.92 659.952 198.825 664.183 200.638L665.759 196.962ZM650.931 193.92C645.016 193.92 640.159 195.123 636.638 197.81L639.064 200.99C641.623 199.037 645.486 197.92 650.931 197.92V193.92ZM636.665 197.79C633.034 200.465 631.291 204.389 631.291 209.24H635.291C635.291 205.451 636.588 202.815 639.037 201.01L636.665 197.79ZM631.291 209.24C631.291 212.097 631.919 214.672 633.263 216.88L636.679 214.8C635.783 213.328 635.291 211.503 635.291 209.24H631.291ZM633.296 216.933C634.74 219.148 637.086 221.063 640.12 222.748L642.062 219.252C639.336 217.737 637.602 216.212 636.646 214.747L633.296 216.933ZM640.14 222.759C643.241 224.436 647.441 226.158 652.69 227.934L653.972 224.146C648.821 222.402 644.861 220.764 642.042 219.241L640.14 222.759ZM652.673 227.929C661.313 230.941 667.194 234.07 670.565 237.221L673.297 234.299C669.308 230.57 662.789 227.219 653.989 224.151L652.673 227.929ZM670.565 237.221C673.819 240.263 675.451 244.084 675.451 248.84H679.451C679.451 243.036 677.403 238.137 673.297 234.299L670.565 237.221ZM675.451 248.84C675.451 254.903 673.225 259.542 668.787 262.979L671.235 266.141C676.717 261.898 679.451 256.057 679.451 248.84H675.451ZM668.803 262.966C664.308 266.373 657.91 268.2 649.371 268.2V272.2C658.431 272.2 665.794 270.267 671.219 266.154L668.803 262.966ZM649.371 268.2C645.422 268.2 641.642 267.813 638.027 267.044L637.195 270.956C641.1 271.787 645.16 272.2 649.371 272.2V268.2ZM638.067 267.053C634.45 266.206 631.493 265.07 629.152 263.68L627.11 267.12C629.889 268.77 633.252 270.034 637.155 270.947L638.067 267.053ZM629.649 264.098C629.236 263.616 628.855 263.097 628.507 262.54L625.115 264.66C625.567 265.383 626.066 266.064 626.612 266.702L629.649 264.098ZM628.507 262.54C628.149 261.967 627.881 261.459 627.689 261.012L624.013 262.588C624.301 263.261 624.673 263.953 625.115 264.66L628.507 262.54Z" fill="white"/>
<rect x="361" y="68" width="94" height="94" stroke="white" stroke-width="6" stroke-linecap="round" stroke-linejoin="round"/>
<path d="M334 79L439 24L465 79" stroke="white" stroke-width="7" stroke-linecap="round" stroke-linejoin="round"/>
<rect x="385.5" y="94.5" width="44" height="42" stroke="white" stroke-width="3"/>
<path d="M400.499 93L400.499 135" stroke="white" stroke-width="3"/>
<path d="M383.968 109.5L429 109.5" stroke="white" stroke-width="3"/>
<path d="M569.148 102.5C569.148 109.544 562.799 115.5 554.648 115.5C546.498 115.5 540.148 109.544 540.148 102.5C540.148 95.4558 546.498 89.5 554.648 89.5C562.799 89.5 569.148 95.4558 569.148 102.5Z" stroke="white" stroke-width="3"/>
<circle cx="561.148" cy="96.5" r="2.5" fill="white"/>
<circle cx="552.148" cy="99.5" r="2.5" fill="white"/>
<path d="M563.148 106.252C563.148 106.252 560.782 105.252 554.648 111.026" stroke="white" stroke-width="2"/>
<path d="M533.648 119C558.562 147.263 576.01 147.36 609.999 134.542" stroke="white" stroke-width="3" stroke-linecap="round" stroke-linejoin="round"/>
<path d="M629.148 133.5C629.148 133.775 628.99 134.108 628.544 134.477C628.1 134.844 627.429 135.197 626.554 135.503C624.811 136.113 622.369 136.5 619.648 136.5C616.928 136.5 614.486 136.113 612.743 135.503C611.868 135.197 611.197 134.844 610.753 134.477C610.306 134.108 610.148 133.775 610.148 133.5C610.148 133.225 610.306 132.892 610.753 132.523C611.197 132.156 611.868 131.803 612.743 131.497C614.486 130.887 616.928 130.5 619.648 130.5C622.369 130.5 624.811 130.887 626.554 131.497C627.429 131.803 628.1 132.156 628.544 132.523C628.99 132.892 629.148 133.225 629.148 133.5Z" fill="white" stroke="white"/>
<ellipse cx="549.021" cy="202.621" rx="10.5192" ry="4.69891" transform="rotate(-10 549.021 202.621)" fill="white"/>
<path d="M527.648 127.5C520.738 155.072 514.795 149.5 560.648 149.5" stroke="white" stroke-width="3" stroke-linecap="round" stroke-linejoin="round"/>
<ellipse cx="559.148" cy="156.5" rx="4.5" ry="8.5" fill="white"/>
<path d="M515.148 188L515.536 189.449C515.589 189.435 515.642 189.418 515.693 189.398L515.148 188ZM539.429 202.627C538.947 203.3 539.102 204.237 539.775 204.72C540.449 205.202 541.386 205.047 541.868 204.373L539.429 202.627ZM539.409 108.654C529.391 123.334 520.553 136.197 513.497 147.072C506.452 157.93 501.126 166.89 498.171 173.752C496.696 177.176 495.765 180.182 495.549 182.7C495.331 185.23 495.825 187.489 497.475 189.083C499.085 190.638 501.492 191.259 504.404 191.264C507.342 191.27 511.043 190.651 515.536 189.449L514.761 186.551C510.379 187.724 506.968 188.269 504.41 188.264C501.827 188.259 500.356 187.695 499.559 186.926C498.804 186.196 498.363 184.993 498.538 182.957C498.714 180.91 499.501 178.248 500.927 174.939C503.772 168.332 508.971 159.558 516.014 148.705C523.045 137.868 531.856 125.043 541.887 110.346L539.409 108.654ZM516.44 188.763C522.929 177.778 528.244 169.718 532.565 164.024C536.915 158.292 540.166 155.083 542.505 153.653C543.668 152.942 544.457 152.763 544.953 152.789C545.375 152.812 545.733 152.987 546.093 153.45C546.488 153.96 546.854 154.794 547.128 156.013C547.398 157.216 547.557 158.692 547.609 160.397C547.821 167.253 546.305 177.103 544.424 185.707C543.487 189.991 542.469 193.926 541.549 196.975C541.089 198.5 540.657 199.789 540.278 200.782C539.881 201.82 539.587 202.405 539.429 202.627L541.868 204.373C542.275 203.805 542.683 202.89 543.08 201.853C543.494 200.771 543.948 199.408 544.421 197.841C545.368 194.706 546.405 190.694 547.355 186.348C549.248 177.69 550.831 167.544 550.608 160.304C550.552 158.484 550.38 156.805 550.055 155.356C549.734 153.924 549.238 152.61 548.463 151.611C547.65 150.564 546.527 149.869 545.112 149.794C543.771 149.722 542.369 150.22 540.94 151.093C538.096 152.832 534.565 156.426 530.176 162.21C525.758 168.032 520.377 176.2 513.857 187.237L516.44 188.763ZM515.693 189.398C535.868 181.534 551.708 179.597 566.111 182.136C580.539 184.679 593.697 191.741 608.474 202.199L610.207 199.75C595.292 189.195 581.703 181.838 566.632 179.181C551.537 176.52 535.127 178.602 514.604 186.602L515.693 189.398Z" fill="white"/>
<ellipse cx="613.87" cy="196.456" rx="9.95492" ry="4.5" transform="rotate(-45 613.87 196.456)" fill="white"/>
</g>
<defs>
<filter id="filter0_d" x="-4" y="0" width="757" height="319" filterUnits="userSpaceOnUse" color-interpolation-filters="sRGB">
<feFlood flood-opacity="0" result="BackgroundImageFix"/>
<feColorMatrix in="SourceAlpha" type="matrix" values="0 0 0 0 0 0 0 0 0 0 0 0 0 0 0 0 0 0 127 0"/>
<feOffset dy="4"/>
<feGaussianBlur stdDeviation="2"/>
<feColorMatrix type="matrix" values="0 0 0 0 0.416667 0 0 0 0 0.416667 0 0 0 0 0.416667 0 0 0 0.25 0"/>
<feBlend mode="normal" in2="BackgroundImageFix" result="effect1_dropShadow"/>
<feBlend mode="normal" in="SourceGraphic" in2="effect1_dropShadow" result="shape"/>
</filter>
</defs>
</svg>
